<?xml version="1.0" standalone="no"?>
<!DOCTYPE svg PUBLIC "-//W3C//DTD SVG 1.1//EN" "http://www.w3.org/Graphics/SVG/1.1/DTD/svg11.dtd">
<svg xmlns="http://www.w3.org/2000/svg">
<metadata>Generated by Fontastic.me</metadata>
<defs>
<font id="nr" horiz-adv-x="512">
<font-face font-family="nr" units-per-em="512" ascent="480" descent="-32"/>
<missing-glyph horiz-adv-x="512" />

<glyph glyph-name="bois" unicode="&#97;" d="M235 0c-8 0-15 6-16 14-2 17 3 45 44 73 56 38 68 97 66 129 0 8 3 15 9 21 10 10 30 22 66 21 13-1 26 3 37 9 3 2 6 4 9 7 4 3 8 4 13 3 4-1 7-4 9-8 4-12 8-24 10-36 17-89-44-175-133-187-12-2-25-2-37 0-7 2-15 2-22 1-14-3-32-11-40-36-2-6-8-11-15-11z m46 291c-13 52-55 167-175 219-18 8-38-7-35-26 2-22 1-53-11-94-3-12-8-24-13-36-14-36-58-168 60-257 12-9 19-22 22-37l7-42c2-10 11-18 21-18 6 0 11 2 15 6 4 4 7 10 7 15l0 8c0 10-1 20-2 29-11 130-41 257-41 258-1 6 2 12 8 14 7 1 13-3 14-9 0-1 25-103 38-219 0-4 3-7 6-9 4-1 8-1 11 2 27 21 61 59 72 116 4 27 3 54-4 80z"/>
<glyph glyph-name="secheresse" unicode="&#98;" d="M251 508l-10-33c-3-10-9-28-15-37-13-19-35-26-57-18-11 4-25 15-34 22l-29 21c-3 2-5 2-8 0-2-2-3-4-2-7l12-31c4-11 11-28 12-40 0-22-13-39-36-45-11-3-30-2-41-2l-37 1c-3 0-5-2-6-4-1-3 0-5 3-7l30-19c9-6 25-16 32-25 15-17 15-39 0-57-7-8-23-18-32-24l-30-20c-3-1-4-4-3-7 1-2 3-4 6-4l37 1c11 1 30 2 41-1 23-6 36-24 36-46-1-11-8-29-12-39l-12-32c-1-2 0-5 2-7 3-1 5-1 8 0l28 21c10 7 24 18 35 22 22 8 44 2 57-17 6-9 12-27 15-38l10-32c1-3 3-5 6-5 3 0 5 2 6 5l10 32c3 11 8 29 15 38 13 19 35 25 57 17 10-4 25-15 34-22l29-21c2-1 5-1 7 0 3 2 3 5 2 7l-11 32c-4 10-11 28-12 39-1 22 13 40 36 46 11 3 29 2 41 1l37-1c2 0 5 2 5 4 1 3 0 6-2 7l-30 20c-9 6-25 16-33 24-14 18-14 40 0 57 8 9 24 19 33 25l30 19c2 2 3 4 2 7 0 2-3 4-5 4l-37-1c-12 0-30-1-41 2-23 5-37 23-36 45 1 12 8 29 12 40l11 31c1 3 1 5-2 7-2 2-5 2-7 0l-29-21c-9-7-24-18-34-22-22-8-44-1-57 18-7 9-12 27-15 37l-10 33c-1 2-3 4-6 4-3 0-5-2-6-4z m26-108c65-9 116-60 125-124 1-11 1-30 0-41-9-64-60-115-125-124-11-2-29-2-41 0-64 9-115 60-124 124-1 11-1 30 0 41 9 64 60 115 124 124 12 2 30 2 41 0z m-40-20c-54-9-96-51-105-104-1-11-1-30 0-41 4-19 11-37 22-52 7-9 15-7 19 3 5 15 12 33 18 47 5 15-4 38 2 38 9-10 9-10 9-10 26-39-23-78 3-118 0 0 0 0 0 0 1-1 7-5 14-8 7-2 10 6 10 17-2 38 16 83 27 115 7 22-8 56 1 56 6-10 6-10 6-10 30-57-17-114 3-171 2-7 10-11 17-9 3 1 4 5 3 10-3 22 10 47 21 69 10 21 1 50 7 50 8-10 8-10 8-10 19-28-1-57-4-85-1-11 10-16 19-9 23 19 39 46 44 77 2 11 2 30 0 41-8 53-51 95-104 104-11 2-29 2-40 0z"/>
<glyph glyph-name="suna" unicode="&#99;" d="M102 495c-6-1-2-10-4-15 1-18 0-36 1-53 4-5 11-1 16-3 97 1 193 0 289 1 6 2 1 11 3 16-1 17 0 35-1 52-4 5-11 1-16 2-96 0-192 0-288 0z m25-8c91 0 181 0 272 0 0-18 0-36 0-55-98 0-195 0-293 0 0 19 0 37 0 55 7 0 14 0 21 0z m-25-119c-6-1-2-10-4-14 0-13 0-25 5-37 9-26 32-42 51-62 25-25 25-69 1-94-18-20-42-36-52-62-5-12-5-25-5-38 1-15 0-30 1-44 4-5 11-1 17-2 96 0 192-1 288 0 6 2 1 11 3 16-1 17 0 35-1 53-5 26-24 47-43 64-16 13-30 32-30 53-3 22 6 44 22 59 19 18 41 36 49 62 5 14 2 29 3 43-2 6-11 2-15 4-97 0-193 0-290-1z m25-7c91 0 181 0 272 0-1-14 2-28-5-41-10-28-37-43-55-66-22-29-19-74 7-101 18-19 42-36 50-62 5-14 2-29 3-43 0-8 0-17 0-25-98 0-195 0-293 0 1 20 0 41 1 61 5 25 24 43 42 60 18 15 32 36 32 60 1 24-10 47-27 63-19 18-40 36-46 62-3 10-1 21-2 32 7 0 14 0 21 0z m274 151c-88 0-217 0-299 0-1 0-2 0-3-1-5-1-11-5-13-10-2-4-2-8-2-11 1-10-1-46 0-64 2-11 12-15 24-16 102 0 204 0 302 1 10 0 15 10 15 22 0 12 0 46-1 63-1 12-11 16-23 16z m-280-38l266 0 0-26-266 0z m-22-91c-11 0-15-10-15-21 0-8 0-38 6-51 11-31 37-49 54-67l0 0 0 0c19-19 20-56 1-75l0 0 0 0c-17-18-43-35-55-66-7-17-6-33-6-45 1-16-1-32 0-46 1-13 15-16 24-16 102 1 204 0 302 1 8-1 15 5 15 22 0 22 1 46-1 65-6 31-28 55-48 73l0 0c-15 12-26 27-26 43l0 1 0 0c-2 17 5 35 18 47l0 0 0 0c19 18 43 38 53 69 7 17 3 35 3 52-1 5-5 10-10 13-4 2-8 2-11 2-94 0-212 0-304-1z m23-37l264 0c3-38-38-62-56-84l0 0 0 0c-27-36-24-89 8-121 20-21 41-36 47-57l0-1 1 0c3-8 0-21 1-38l0-11-265 0c0 15-1 31 0 45 4 19 20 36 38 52l0-1c20 18 37 43 36 73 2 29-11 56-32 74-19 18-37 35-42 55l0 0 0 0c0 3 0 10 0 14z"/>
<glyph glyph-name="sharingan" unicode="&#100;" d="M237 511c-122-9-220-102-235-224-15-121 58-236 174-274 116-39 243 10 303 117 70 123 26 279-97 349-44 25-94 36-145 32z m61-22c-10-7-18-14-26-23-2-3-3-7-3-11 1-3 4-7 7-8 13-7 21-20 23-34 71-20 120-84 120-157 0-13-2-27-5-39 5-4 9-7 12-12 0 0 34-47 12-100 0 11-3 22-6 33-2 4-5 7-8 8-4 1-8 0-11-2-12-8-28-9-42-3-62-63-163-64-227-3-5-2-11-4-16-4 0 0-58-7-93 38 10-5 21-9 32-11 4 0 8 1 10 4 3 2 5 6 4 10-1 14 6 29 18 37-24 87 27 177 114 201 0 5 2 11 4 16 0 0 24 52 81 60z m-83-96c-73-22-116-98-97-173 1 1 3 1 5 1 18 1 34-8 42-23 8-16 6-35-5-48 56-51 141-50 196 2-1 2-2 3-3 5-14 20-8 47 12 61 10 6 21 8 32 6 11 48-4 98-39 133-17 17-38 30-61 36 0-1-1-3-2-5-8-15-24-24-41-23-17 1-32 12-39 28z m55-77c28-6 48-31 48-60 0-34-28-62-62-62-23 0-45 14-55 35-11 21-8 47 7 65 15 19 39 27 62 22z"/>
<glyph glyph-name="poison" unicode="&#101;" d="M265 179c-4 6-9 8-18 2-3-2-6-6-7-9-1-4-6-14-5-16 1-4 5-6 9-7 6-1 23 0 28 4 5 5 0 18-7 26z m60 64c-13 11-33 11-43-4-3-6-5-12-6-19-2-14 5-28 18-34 14-7 33-2 41 12 8 15 2 34-10 45z m-98-11c-4 7-10 12-17 15-13 4-27-2-34-13-18-26 10-62 40-48 12 6 19 19 17 33-1 5-3 9-6 13z m224-46c-1 1-13 2-17-10-2-4-4-7-7-9-2-1-4-2-6-3-3-1-6-1-9-1-5 1-5 4-5 8 1 18 10 35 15 51 11 34 13 70 5 104-5 25-17 62-49 60-12-1-24-8-27-20-2-7 1-15-1-22-2-8-11-4-16-1-12 10-18 26-24 40-6 13-21 17-31 5-10-11-14-30-13-44 1-7 2-13 7-19 5-6 13-7 20-9 26-6 56-16 72-40 17-26 14-69-3-95-10-15-24-26-39-35-7-4-14-8-18-15-4-9 0-17-2-25-2-6-7-9-12-10-2-1-5 0-7 1-2 2-3 4-3 7-1 4-1 9-3 12-3 4-8 5-12 2-5-5-5-13-4-20 0-1 0-3-1-4-1-1-3-2-4-2l-1 0c-1 0-5 0-9-1-2 0-3 1-4 1-1 1-1 3-1 4-1 3-1 5-1 8 0 5 0 10-4 13-2 3-6 3-9 0-4-3-4-9-4-14 0-2 0-4 0-6 0-2-1-4-2-5-1-2-3-2-4-2-6-1-12 2-12 10-1 15-3 30-12 43-10 14-26 19-40 28-17 11-22 29-21 48 1 21 8 43 12 63 2 8 4 19 12 24 2 1 6 3 9 2 3-1 4-4 7-6 7-6 16-2 24 1 8 3 16 8 22 14 12 12 16 31 7 46-5 9-8 15-7 25 0 9 2 18 1 27-1 14-9 32-26 32-7 0-14-4-19-10 0 0 0-1-1-1-4-5-7-10-8-17-2-8-2-16-3-25-1-8-3-17-6-25-3-7-6-15-11-21-4-5-13-9-16-1-3 6-3 12-7 18-4 5-11 9-18 9-13-1-19-15-20-27-2-17-2-35-6-53-5-16-12-31-17-47-6-17-11-34-12-52-1-25 0-52 12-75 1-5 3-9 6-13 5-7 13-14 22-14 3 0 5 3 5 6 0 0 0 1-1 2-1 4-4 8-2 13 2 6 10 8 16 7 10-1 15-9 22-15 6-6 12-13 15-20 1-4 4-10-1-12-4-2-9-1-13-1-9 0-11-10-7-16 21-25 51-45 83-52 2-1 3 0 5 0 21-6 46-6 66-1 25 5 47 20 71 28 12 3 23 7 34 13 9 6 18 14 26 23 16 17 30 36 40 57 8 15 26 52 2 61z m-52 115c-1-1-2-1-3-2-3-1-7-1-10 1-4 3-6 7-7 12-2 3-2 6-3 9-1 6-3 14-1 20 2 4 4 6 8 7 3 2 7 1 10 0 6-3 9-9 11-15 3-9 6-27-5-32z m-88 132c4 5 6 11 7 17 0 6 0 14-4 18-2 3-5 5-8 6-2 0-3 1-5 1-7-1-12-4-14-9-5-13-4-24 2-33 4-8 19-5 22 0z m-119 41c10-3 21 7 19 22-1 8-6 16-15 16-5 0-10-3-12-8-4-4-4-12-3-17 0-8 6-12 11-13z m-78-65c1 1 5 8 5 10 2 8 0 17-6 22-8 6-18 3-22-5-3-7-5-17 0-24 5-8 17-11 23-3z m94-314c0 1 0 1 0 0z"/>
<glyph glyph-name="renforcement" unicode="&#102;" d="M163 477c0 10-8 18-18 18-9 0-17-8-17-18 0-9 8-17 17-17 5 0 9 2 13 5 3 3 5 8 5 12z m310-166c0 12-10 22-21 22-12 0-22-10-22-22 0-12 10-21 22-21 11 0 21 9 21 21z m-122 135l11 15c7 9 8 21 5 32l-5 14c-1 2-4 4-6 5-3 0-6-1-8-3l-10-12c-8-9-10-22-6-34l5-15c1-3 4-5 7-5 3-1 6 0 7 3z m-286-94l-13 8c-2 2-5 2-8 1-2-2-4-4-4-7l-1-16c-1-12 5-24 15-30l14-10c2-1 5-1 8 0 2 1 4 4 4 7l0 19c-1 11-6 22-15 28z m143-279l0-1c0-9 7-15 15-15l18 0 4-49c1-5 4-8 9-8l9 0c5 0 9 3 9 8l4 49 18 0c9 0 15 6 15 15l0 1c0 2 0 3-1 3-1 1-2 2-3 2l-93 0c-1 0-2-1-3-2-1 0-1-1-1-3z m213 180c-12-8-25-9-32-9-5 0-9 2-13 4-10 7-10 18-8 28 2 8 6 16 13 22 29 30 30 69 27 94-1 7-11 11-16 5-8-8-17-11-26-12-14-1-28 3-39 10-31 20-49 52-59 76-1 4-5 6-9 6-4 0-8-2-10-6-10-24-28-56-58-76-12-7-26-11-39-10-9 1-19 4-26 12-3 2-6 3-10 2-3-1-6-4-6-7-4-25-3-64 27-94 6-6 11-14 13-22 2-10 1-21-9-28-4-2-8-4-12-4-8 0-21 1-32 9-4 3-9 3-12 1-4-3-6-7-5-11 5-27 20-59 57-69 8-2 16-5 24-10 13-9 25-20 34-34 2-2 5-3 9-2 3 1 5 4 4 8l-19 157c-1 8 1 17 5 24l38 65c4 7 11 13 18 15 14 4 28-2 35-14l38-66c5-7 7-16 5-24l-19-157c0-4 2-7 5-8 3-1 7 0 8 3 10 14 22 25 36 34 7 4 14 7 22 9 38 10 52 42 57 69 1 4-1 8-4 10-4 3-9 3-12 0z m-151-158l9 0c1 0 3 1 3 2l24 198c1 4 0 7-2 10l-39 67c-1 2-3 4-6 4-3 0-5-2-7-4l-38-67c-2-3-3-6-3-10l25-198c0-1 1-2 3-2l8 0c2 0 3 1 3 3l0 197c0 5 4 9 9 9 2 0 4-1 6-2 1-2 2-4 2-7l0-197c0-2 2-3 3-3z"/>
<glyph glyph-name="senseur" unicode="&#103;" d="M256 512c-8 0-15-3-20-9-6-6-9-15-8-24 1-20 9-40 22-55 1-2 4-3 6-3 2 0 4 1 6 3 13 15 21 35 22 55 1 9-2 18-8 25-5 5-13 8-20 8z m184-52c-2 0-3 0-5 0-8-2-16-6-21-14-12-16-19-36-20-57 0-2 1-4 3-6 2-1 4-2 7-1 20 3 38 13 53 28 6 6 9 15 9 24-1 14-12 25-26 26z m-368 0c-14-1-25-12-26-26-1-9 3-18 9-24 15-15 33-25 53-28 3-1 5 0 7 1 1 2 2 4 2 6 0 21-7 41-19 57-5 8-13 12-21 14-2 0-3 0-5 0z m184-68c0 0-73 0-127-56-6-6-13-13-21-18-20-16-49-43-91-49-10-1-17-10-17-19 0-10 7-18 17-20 42-6 71-32 91-48 8-6 15-12 21-19 54-55 127-55 127-55 0 0 72 0 127 55 6 7 13 13 20 19 21 16 50 42 92 48 10 2 17 10 17 20 0 9-7 18-17 19-42 6-71 33-92 49-7 6-14 12-20 19-55 55-127 55-127 55z m-4-67l8 0c33-1 66-13 92-35 13-11 28-21 43-29 4-2 7-7 7-11 0-5-3-9-7-12-15-8-29-18-43-29-26-22-58-34-92-35l-8 0c-34 1-66 13-92 35-14 11-28 21-43 29-4 3-7 7-7 12 0 4 3 9 7 11 15 8 29 18 42 29 27 22 59 34 93 35z m4-30c-25 0-45-20-45-45 0-25 20-46 45-46 25 0 45 21 45 46 0 25-20 45-45 45z m-147-165c0 0 0 0-1 0-20-3-38-13-53-28-6-6-10-15-9-24 0-7 4-14 10-19 5-5 13-7 21-7 8 2 16 6 21 14 12 16 19 36 19 57 0 2 0 4-2 5-1 2-4 3-6 2z m292 0c-4 0-7-3-7-7 1-21 8-41 20-57 5-8 13-12 21-13 8-1 15 1 21 6 6 5 10 12 10 19 0 9-3 18-9 24-15 15-33 25-53 28-1 1-2 1-3 0z m-145-39c-2 0-5-1-6-2-13-16-21-36-22-56-1-9 2-18 8-24 5-6 12-9 20-9 7 0 15 3 20 9 6 6 9 15 8 24-1 20-9 40-22 56-2 1-4 2-6 2z"/>
<glyph glyph-name="soin" unicode="&#104;" d="M136 489c-72-6-130-66-136-141 0-7 0-18 0-25 1-14 4-28 8-42 1-6 8-12 15-12l76 0c7 0 13 5 15 12l26 96c2 7 8 12 16 12l3 0c8 0 14-5 16-12l49-184c1-2 2-3 4-3 1 0 2 1 3 3l14 53c3 8 7 15 13 20 5 3 11 4 17 3l28 0c8 0 14 5 16 12l26 96c2 7 8 12 15 12l4 0c7 0 14-5 16-12l25-96c2-7 9-12 16-12l68 0c7 0 14 6 16 12 3 14 6 28 6 42 1 7 1 18 0 25-5 75-63 135-134 141-7 1-18 1-25 0-35-3-67-19-90-44-3-2-7-2-10 0-25 25-56 41-92 44-6 1-18 1-24 0z m18-173l-15-54c-2-7-6-14-13-19-5-3-11-4-16-3l-75 0c-7 0-10-5-7-11 56-108 180-183 218-204 6-4 16-4 22 0 37 21 161 96 216 204 4 6 0 11-7 11l-68 0c-8 0-16 3-22 7-4 4-7 10-8 15l-14 54c-1 2-2 3-4 3-1 0-2-1-3-3l-14-54c-2-7-7-14-13-19-5-3-11-4-17-3l-28 0c-7 0-13-5-15-12l-26-96c-2-7-8-12-16-12l-3 0c-8 0-14 5-16 12l-49 184c-1 2-2 3-4 3-1 0-2-1-3-3z"/>
<glyph glyph-name="shuriken3" unicode="&#105;" d="M195 282c0 3-2 5-4 5l-70 22-46 56c-2 2-4 2-7 2-2-1-4-2-5-5l-22-69-16-13 0 150c0 7-5 12-12 12-7 0-13-5-13-12l0-338c0-6 6-12 13-12 7 0 12 6 12 12l0 131 32-10 47-56c1-1 3-2 5-2 0 0 1 0 1 0 3 1 5 2 5 5l22 69 56 47c2 1 3 4 2 6z m-90-31c-3-4-7-7-12-8-10-2-20 5-22 14-1 5 0 10 3 14 3 4 7 7 12 8 1 0 2 1 3 1 9 0 17-7 18-15 1-5 0-10-2-14z m296-129l-60 41-29 67c0 2-3 3-5 4-2 0-5-1-6-3l-41-60-67-29c-2-1-4-3-4-5 0-3 1-5 3-6l60-41 28-67c1-2 3-4 6-4 0 0 0 0 0 0 3 0 5 1 6 3l41 60 67 28c2 1 4 3 4 6 0 2-1 5-3 6z m-106-14c-5 0-10 3-13 7-3 3-5 8-4 13 1 10 9 17 18 17 1 0 2 0 2 0 10-1 18-10 17-21-1-10-10-17-20-16z m150 244l-39 61-1 72c0 3-1 5-4 6-2 1-4 1-6 0l-61-40-73-1c-2 0-5-1-6-3-1-3-1-5 1-7l39-61 1-73c0-2 1-4 4-5 1-1 2-1 3-1 1 0 2 0 4 1l60 40 73 0c2 0 5 2 6 4 1 2 1 5-1 7z m-78 35c-5-9-16-12-25-8-5 3-8 7-9 11-2 5-1 10 1 15 3 6 10 9 17 9 3 0 6 0 8-2 9-5 13-16 8-25z m138 63l-68 0c-4 0-7-3-7-7 0-4 3-7 7-7l68 0c4 0 7 3 7 7 0 4-3 7-7 7z m-17-47l-34 0c-4 0-7-3-7-7 0-4 3-7 7-7l34 0c4 0 7 3 7 7 0 4-3 7-7 7z m-37-223l-68 0c-4 0-7-3-7-7 0-3 3-6 7-6l68 0c3 0 6 3 6 6 0 4-3 7-6 7z m-51-124l-34 0c-4 0-7-3-7-7 0-4 3-7 7-7l34 0c4 0 7 3 7 7 0 4-3 7-7 7z m-34 157c-4 0-7-3-7-7 0-4 3-7 7-7l34 0c4 0 7 3 7 7 0 4-3 7-7 7z"/>
<glyph glyph-name="shuriken2" unicode="&#106;" d="M410 232c-6 13-6 35 0 48l99 217c7 13 1 19-13 13l-220-100c-13-6-35-6-48 0l-213 99c-13 7-19 1-13-12l100-217c6-13 6-35 0-48l-100-217c-6-13 0-19 13-12l213 99c13 6 35 6 48 0l220-100c14-6 20 0 13 13z m-154-44c-37 0-68 31-68 68 0 37 31 68 68 68 37 0 68-31 68-68 0-37-31-68-68-68z"/>
<glyph glyph-name="harareru" unicode="&#107;" d="M255 398c-24-34-46-61-20-129-19 44-43 84-123 69 17-6 35-26 56-47-30 7-58 12-71 23 26-73 75-73 125-67-76-12-90-43-109-80 43-3 79-7 129 48-31-38-56-77-2-135-3 17 7 42 15 69 8-27 18-52 15-69 54 58 29 97-2 135 50-56 86-51 129-48-18 37-33 68-109 80 50-6 99-6 126 67-14-11-42-16-71-23 21 21 39 41 56 47-81 15-105-25-124-69 27 68 5 95-20 129z m75-28c-27-1-28-41-28-41 14 21 55 40 31 41-1 0-2 0-3 0z m-150 0c-1 0-2 0-3 0-24-1 18-20 32-41 0 0-2 40-29 41z m75-106c11 0 21-9 21-21 0-11-10-21-21-21-12 0-21 10-21 21 0 12 9 21 21 21z m-153-12c-4 0-6-2-2-8 13-25 53-5 53-5-18 1-42 12-51 13z m306 0c-9-1-33-12-51-13 0 0 40-20 54 5 3 6 2 8-3 8z m-208-89c0 0-39-22-23-46 14-19 10 25 23 46z m111 0c12-22 9-65 22-46 16 24-22 46-22 46z m-220-85c-76 50-79 70-83 72-40 8 93-211 325-130z m111 387c83 39 102 31 105 33 27 31-229 30-279-211z m278-292c-7-92-23-104-23-108 13-39 138 185-46 347z m-224 306c-38 0-76-9-109-26-118-60-166-204-106-322 60-118 204-166 323-106 118 60 165 204 105 323-41 80-123 131-213 131z m0-61c67 0 128-38 158-98 45-88 10-196-78-240-88-45-196-10-240 78-45 88-10 196 78 240 26 13 53 20 82 20z"/>
<glyph glyph-name="terre" unicode="&#108;" d="M510 55l-56 167c-3 8-8 16-16 20l-47 30c-3 2-7 2-10-1-4-2-5-5-4-9l18-92c1-7-3-14-10-15-1 0-2 0-2 0-6 0-12 4-13 10l-29 144-32 128c-3 9-9 16-18 20l-81 32c-4 1-9 1-13-1-4-2-7-6-7-10l-34-155-53-285c-1-4 0-8 3-11 3-3 6-5 11-5l369 0c8 0 16 4 21 11 5 6 6 15 3 22z m-225 247l-29 25c-11 9-18 23-19 37l-3 55c0 4 2 7 5 9 2 1 6 2 9 0l12-6c8-4 15-11 17-21l23-89c1-4-1-8-4-10-4-3-8-2-11 0z m-188-74l-54-53c-6-5-10-12-12-20l-30-110c-2-5-1-11 3-16 3-4 8-7 14-7l45 0c6 0 12 5 13 11l35 187c1 4-1 7-4 9-3 2-7 1-10-1z"/>
<glyph glyph-name="boue" unicode="&#109;" d="M495 125c1 1 1 1 2 2 0 0 1 1 1 1 0 1 1 2 2 2 0 1 0 1 0 1l2 3c0 0 1 0 1 0 0 1 1 2 1 3 1 0 1 0 1 1 0 0 1 1 2 2 0 0 0 1 0 1 0 1 1 2 1 3 0 0 0 0 0 0 1 1 1 2 1 3 0 0 1 1 1 1 0 1 0 2 1 3l0 0c0 1 0 2 0 3l0 0c0 2 1 3 1 4l0 0c0 1 0 2 0 4 0 1 0 2 0 3-2 20-18 39-53 53-82 34-198 30-192 56 1 2 2 5 4 7 1 2 3 4 5 5l0 1c1 0 2 1 3 2l1 0c7 5 17 10 28 15 0 1 1 1 2 1l1 1c2 1 3 1 4 2 1 0 1 0 1 1 2 0 3 1 5 2 0 0 0 0 0 0 2 1 3 2 5 3 0 0 0 0 1 0 1 1 3 2 4 3l1 0c1 1 3 2 4 3 0 0 1 0 1 0 1 2 3 3 4 4l3 2c0 0 0 0 1 0 0 1 1 1 1 2l2 1c0 1 0 1 1 1 0 1 0 1 1 1 0 1 0 1 0 1 1 1 1 1 1 1 0 1 1 1 1 1 0 1 0 1 0 1 1 1 1 1 1 1l1 1c0 1 0 1 0 1 0 1 0 1 0 1 0 1 1 1 1 1 0 1 0 1 0 1 0 1 0 1 0 1 0 1 0 1 0 1 0 1 0 1 0 2l0 0c1 3 0 6-1 9-5 12-20 22-42 28-21 5-81 12-81 27 0 3 2 6 7 8 3 1 7 3 12 4 1 0 3 1 5 1l0 0c3 1 6 1 10 2 0 0 0 0 1 0 1 0 2 1 3 1 1 0 1 0 2 0 1 0 3 0 4 1 27 3 41-2 37 9 0 0-1 1-2 1 0 0 0 0 0 0 0 1-1 1-2 1 0 0 0 0 0 0-1 1-3 2-5 3l0 0c-1 0-2 0-3 1-2 1-6 2-9 3-5 1-11 2-18 3-14 1-32 3-58 1-39-2-82-16-89-44-1-2-1-4-1-6l0-4c0-1 0-2 0-3 0-1 1-2 1-3 0 0 0-1 0-1l1-2c0 0 0-1 0-1 0-1 0-1 1-2 0 0 0-1 0-1 0-1 1-1 1-2 0 0 0-1 0-1 1-1 1-1 1-1 0-1 1-1 1-2 0 0 0-1 0-1 1-1 1-1 1-2l1-1c3-6 6-12 9-18 0 0 0 0 0 0 1-1 1-2 1-3 0 0 1 0 1 0 0-1 0-2 0-3 0 0 0 0 1 0 0-1 0-2 0-2 4-12 1-24-17-37-38-29-99-45-116-88-1-2-1-4-2-6 0-1 0-2-1-3-3-19 11-27 33-32l0 0c1 0 2 0 3 0l0 0c1-1 3-1 4-1l0 0 3 0 1 0 3-1 1 0c1 0 2 0 3 0l0 0c2-1 3-1 4-1l0 0c1 0 3 0 4 0l0 0c6-1 11-1 16-2l0 0c2 0 3 0 5 0 44-5 91-15 129-50 49-47 188-64 266-9l3 3c1 0 1 0 1 1 1 0 2 1 3 2 0 0 1 0 1 1 1 0 1 1 2 2 0 0 1 1 1 1z m-307-26c-17 27-51 47-93 50-38 3-71-10-87-23-12-10-15-20 27-18 18 1 29-5 17-19-11-13 20-23 63-26 19-1 42 0 59 6 16 6 23 16 14 30z m124 173c9-17 71-15 84-2 12 12-7 33-42 33-22 0-46-23-42-31z"/>
<glyph glyph-name="cristal" unicode="&#110;" d="M445 399l12 28c2 6 6 10 11 12l29 12c1 0 2 2 2 3 0 2-1 3-2 4l-29 12c-5 2-9 6-11 11l-12 29c-1 1-2 2-4 2-1 0-2-1-3-2l-12-29c-2-5-6-9-11-11l-29-12c-1-1-2-2-2-4 0-1 1-3 2-3l29-12c5-2 9-6 11-12l12-28c1-2 2-3 3-3 2 0 3 1 4 3z m-53-68l0 2c3 5 7 9 12 11l1 1c2 0 2 2 2 3 0 2 0 3-2 4l-1 0c-5 2-9 7-12 12l0 1c-1 1-2 2-4 2-1 0-2-1-3-2l-1-1c-2-5-6-10-11-12l-1 0c-2-1-3-2-3-4 0-1 1-3 3-3l1-1c5-2 9-6 11-11l1-2c1-1 2-2 3-2 2 0 3 1 4 2z m-318-10l9 21c2 6 6 10 11 12l21 9c2 0 3 1 3 3 0 1-1 3-3 3l-21 9c-5 2-9 6-11 12l-9 21c-1 1-2 2-3 2-2 0-3-1-4-2l-9-21c-2-6-6-10-11-12l-21-9c-2 0-2-2-2-3 0-2 0-3 2-3l21-9c5-2 9-6 11-12l9-21c1-1 2-2 4-2 1 0 2 1 3 2z m376-273l-17 0c-5 0-9 4-9 9 0 5-4 9-9 9l-35 0c-5 0-9 4-9 9 0 4 2 8 4 12l64 124c2 5 2 11 0 16l-23 52c-2 5-7 7-11 5l-53-23c-5-2-9-7-10-12l-16-55c0 0 0-1-1-1 0 0-1 1-1 1l11 216c0 6-2 11-7 13l-73 44c-5 3-11 3-15 0l-74-44c-4-2-7-7-7-13l16-308c0-1 0-1 0-1 0 0 0 0 0 0l-23 78c-1 5-5 9-10 11l-53 23c-4 2-10 0-12-5l-22-52c-2-5-2-11 1-16l34-66c1-2 1-4 0-6-1-1-3-2-5-2l-6 0c-4 0-8-4-8-9 0-5-4-9-9-9l-18 0c-5 0-9-4-9-9l0-17c0-5-4-9-9-9-4 0-8-4-8-9 0-5 4-9 8-9l442 0c5 0 9 4 9 9 0 5-4 9-9 9-5 0-9 4-9 9l0 17c0 5-4 9-9 9z m-150 327l-17-272c0-1-1-2-2-2l-28 306c0 1 1 3 2 4 2 1 3 1 5 0l33-22c4-4 7-9 7-14z m-98 14l38 25c1 1 3 1 5 0 1-1 2-2 2-4l0-300c0-5-4-9-9-9l-17 0c-5 0-9 4-10 9l-16 265c-1 5 2 10 7 14z"/>
<glyph glyph-name="typhon" unicode="&#111;" d="M68 278c0-8-7-15-15-15-8 0-14 7-14 15 0 8 6 14 14 14 8 0 15-6 15-14z m431 79c-4 3-6 9-4 14 6 13 9 27 10 41 1 10-12 14-17 6-7-11-16-23-27-33-6-5-15-4-19 2l0 1c-3 4-3 11 1 15 8 9 25 31 29 55 5 22-9 43-30 49-26 8-76 11-162-22-6-3-4-11 2-10 24 3 52 4 81-2 1 0 2-2 2-3 0-1-1-2-2-2-39-3-129-18-205-86-5-4-6-11-2-15 4-5 11-6 16-3 23 18 94 65 185 72 0 0 15 1 28-4 10-3 12-15 4-21-18-16-52-35-102-54 0 0-110-36-168-20 0 0-29 15 3 44 0 0 36 32 80 63 6 5 1 14-6 11-36-15-82-39-123-76-14-12-18-33-9-49 6-11 18-22 40-30 4-1 7-4 8-8 3-9 14-24 64-22 0 0 129 4 221 72 2 1 4 1 5 0 2-2 2-4 1-6-15-18-50-48-130-77-3-1-5-4-4-7 0-3 3-5 6-5 30 2 77 9 121 41 2 1 4 1 6 0 1-2 2-4 1-6-10-18-37-47-105-63-20-5-41-5-62 0-10 2-19 6-28 11-2 1-4 4-4 6-1 3 0 6 1 8l1 0c0 1 0 3 0 4-1 0-3 1-4 0-9-5-18-11-27-18-5-4-6-12-3-18 5-9 13-18 21-24 2-1 2-4 1-6-1-1-3-2-5-2-10 3-22 10-36 25-12 12-32 4-33-12 0-9 2-19 7-32-3 4-7 7-12 10-6 4-13 4-20 1-6-2-11-8-13-15-4-14-5-41 28-68 1-1 1-3 1-4-1-2-3-3-4-2-21 4-39 17-49 35-2 4-5 6-9 5-4 0-7-4-8-8-1-7-1-17 4-29 1-3 1-6 0-10-3-10-8-34 15-56 13-13 31-20 50-20 12 0 28 0 42 5 9 2 8 14-1 15-13 1-28 4-41 13-1 1-2 3-1 4 0 2 2 3 3 3 11-1 25-2 38 2 4 1 7 1 11 0 16-3 61-11 97 9 6 4 14 6 21 6 30 0 103 5 132 76 2 5 6 10 11 13 14 8 44 31 62 77 4 11-10 19-17 10-24-27-64-60-123-71 0 0-35-3-60 8-2 1-4 4-3 7 0 3 2 5 5 5 40 3 138 20 210 121 6 8 10 18 11 28 1 9 0 19-8 26z m-194-250c5-1 4-9 0-10-21-8-46-5-67 2-11 4-22 9-32 15-8 5-19 11-22 21-2 5 3 9 8 8 9-1 18-9 27-14 8-4 18-8 27-11 19-6 39-8 59-11z m-59 141c0-6-5-11-12-11-6 0-11 5-11 11 0 7 5 12 11 12 7 0 12-5 12-12z m-210 73l0 0 0 0c0 1 0 1-1 1 0 0 0 1 0 1 0 1-1 2-1 3-1 3-1 5-1 7-1 5-1 9-1 14 0 2 1 5 1 7 1 2 1 5 2 7 0 1 0 2 1 4l1 3 0 2c1 0 1 1 1 1l2 4c4 9 9 18 16 26 1 2 3 4 5 6l3 2 2 3c2 2 4 4 6 6l8 7 1 1 3 2c2 2 4 4 7 5 4 4 8 7 13 10l7 4c2 2 4 3 7 5l7 4 7 4c19 11 39 20 60 29l0 0c4 1 7 7 5 11-2 5-7 7-12 5-21-8-42-17-63-27l-7-4-8-4c-3-2-5-3-8-4l-7-5c-5-3-10-6-15-10-2-1-4-3-7-5l-3-2-2-2-2-1-7-6c-2-2-4-4-6-6l-3-3-4-3c-2-2-4-4-6-7-8-9-15-19-21-30l-2-4c0-1 0-2-1-2l-1-3-1-4c-1-1-1-3-2-5-1-3-2-6-2-9-1-3-2-6-2-10-1-6-1-13 0-19 0-4 1-7 2-10 0-2 1-4 1-5 0-1 1-2 1-3l0-1 1-1 0-1 0 0c4-7 12-10 19-6 7 3 10 11 7 18z m0 0l0 0z"/>
<glyph glyph-name="seireiken" unicode="&#112;" d="M269 409c0-1 0-1-1-1-4 0-8-1-12-3-1-1-1-1-1 0-5 2-10 3-15 3-7 0-15-1-21-5-3-1-6-3-9-5-6 3-13 3-20 2-8-1-15-4-21-9-3-1-4-4-6-6-1-1-1-1-2-1-3 0-5 0-8 0-7 0-14-2-20-6-6-3-10-8-14-15 0 0-1 0-2 0-4-1-8-1-12-2-5-1-9-3-12-6-2-3-5-5-7-8-1-2-3-5-4-8-1-1-1-3-2-5-5-3-12-3-17-7-3-3-6-6-8-10-4-5-5-11-5-17-4-1-7-2-10-3-6-2-10-7-13-12-3-5-5-10-5-16 0 0-1-1-1-2 1-3-1-4-3-6-3-1-6-3-8-5-3-3-7-7-10-10l0-9c3-2 7-4 10-5 4-2 8-4 12-6 13-6 26-12 39-18 11-5 21-10 32-14 5-3 10-5 15-8l56-26c38-18 71-34 80-37 1-11 9-19 20-19 10 0 19 8 20 19 5 2 36 20 79 43l71 40c4 2 8 4 12 6 5 3 10 6 15 8 6 3 12 6 18 10 4 2 8 4 11 6 8 4 15 7 22 11l0 6c-1 2-2 4-3 6 0 0-1 0-1 0-2 7-6 12-12 16 1 7-1 13-4 20-4 5-9 10-14 13-4 2-7 2-11 3-1 1-2 1-2 2 0 4-1 7-2 11-3 5-7 9-11 13-6 4-12 5-18 7-2 6-5 12-10 16-6 5-13 10-21 10-3 0-5 0-8 0 0 0-1 1-2 1-2 2-3 4-5 6-4 5-10 8-16 11-2 1-5 1-8 2-4 0-9-1-13-1-1 0-2 1-3 2-5 5-10 8-16 10-7 2-13 3-19 2-4 0-8-2-12-3-1 0-2 0-2 1-5 4-10 6-15 7-2 0-3 0-5 1z m-12-23c35 0 63-28 63-64 0-35-29-63-64-63-36 0-63 28-63 64-1 35 28 63 64 63z m-10-13c-1 0-2-2-4-5-1-2-2-3-4-2-1 0-2 0-2 0-1 0-5-8-6-13-1-5-1-12 0-14 1-1 1-1 6-3 7-2 11-5 15-8 1-1 2-2 2-2 0 0 0 1 0 2-1 1-2 3-4 4-1 1-2 2-2 2-1 1-1 2 0 2 0 2 1 2 3 2 1 0 2-1 4-6 1-3 2-5 3-5 0 0 2 5 2 7 1 3 1 11 1 15-1 5-3 12-4 14-2 5-8 10-10 10z m36-20c-5 0-11-1-16-3-2-1-3-1-3-2 0-1 0-3 0-4 0-6-1-13-3-18-1-1-1-3-1-3 0 0 2 1 3 2 1 1 1 2 2 5l1 2 1 0c4 0 5-3 1-6 0-1-2-2-4-3-1-1-2-3-2-3 0 0 0 0 1 0l0 0c1 0 6 0 10 1 9 1 18 6 24 12 2 2 4 6 5 9 0 2 0 2 0 3-1 1-2 1-5 2-2 0-3 1-3 1-1 0-1 1-1 2 0 2 0 2-4 3-2 0-4 0-6 0z m-64-17c-3 0-5-1-7-1-6-2-10-5-9-7 0-1 1-2 3-4 1-1 2-3 2-3 0 0 0-1-1-2-1-1-1-1-1-2 0 0 4-5 7-7 4-2 9-5 15-6 0 0 1 0 2 0 2-1 2 0 5 4 4 6 8 9 12 12 3 1 3 2 0 2-2 0-4-1-5-3-1-1-1-1-3-1-1 0-1 0-2 1 0 1 0 2 0 2 1 2 1 3 7 3 3 0 5 1 6 1 1 0 0 0-3 2-6 4-12 7-19 8-3 1-6 1-9 1z m179-4c3 0 5 0 8 0 4-1 8-1 11-4 3-3 6-4 10-6 4-1 6-5 6-9-1-2-2-4-2-5 0 0 0-1 1-1 4 0 9-1 13-4 6-5 7-11 3-18-1 0-1-1-2-2 0-2 0-3 1-5 1-1 3-1 4 0 1 0 3 0 3 1 4 3 8 3 12 3 5 0 9-2 11-6 2-4 4-7 7-9 2-2 4-4 4-7 0-1 0-2-2-1-1 0-3 1-4 2-3 1-7 3-10 5-8 3-16 2-23-3-1-2-3-3-5-4-9-5-19-8-31-7-1 1-3 1-5 1 2-6 0-10-5-13-5-3-11-5-17-3-1 1-1 1-2 0-7-5-14-5-21-2-5 3-10 6-11 13-3-1-6-2-9-1-8 0-12 4-14 11-1 1-1 2-2 2-8 4-9 13-4 19 4 6 10 10 17 12 9 3 18 3 26-1 3-2 6-5 7-8 1-2 1-4 1-6 0 0 0 1 0 1 2 4 5 6 8 8 3 1 5 3 8 4 10 5 20 4 30-1 4-2 5-4 5-8 0-5-3-8-8-10-7-3-15-2-22 0-2 1-4 2-4 5 0 2 1 3 3 4 4 1 8 1 12 1 0-1 1-1 1-1-1-1-2-1-2-1-3 0-6 0-9-1-1 0-3-1-3-3 0-2 2-2 3-2 5-2 10-2 14-2 4 0 8 2 10 5 2 3 2 8 0 9-6 3-11 4-18 4-7-1-14-4-20-8-3-2-5-5-5-8 0-4 2-8 6-10 2-1 4-2 6-2 4-1 8-1 12-2 7-2 14-4 21-3 9 1 17 5 24 11 7 5 14 6 21 4 6-2 10-5 15-7 1-1 3-3 5-3-1 3-3 5-5 6-3 3-6 5-9 9-5 4-11 5-17 2-1 0-3-1-5-2-3 0-7 3-7 6 0 2 1 4 2 6 1 5 0 9-4 12-3 2-6 4-10 5-3 0-6 0-8-1-1-1-3-2-4-2-7-2-14-3-21-3-4 0-7 0-9 2-7 3-7 11-2 16 4 2 7 2 11 2 4-1 7-3 11-3 3 0 4-4 2-6-1 0-2-1-3-1-3-1-5-1-8-1 0 0-1 0-1 1 0 0 1 0 1 0 2 0 4 0 6 1 1 0 2 0 3 1 1 2 1 3 0 3-1 1-2 1-2 1-2 0-3 0-5 1-2 1-5 1-8 0-3 0-6-3-7-5 0-4 2-7 6-8 6-1 11 0 17 0 5 1 10 3 14 5 3 2 5 4 4 8 0 3-3 4-6 5-2 0-5 1-7 3-2 2-4 3-7 3-6 1-12 2-18 1-8-1-15-3-22-8-3-3-7-4-11-2-3 1-6 2-8 0 0 2 0 2 2 3 2 1 4 1 7 0 3-1 6 0 8 2 3 2 6 4 9 5 7 3 15 5 22 5z m-277-2c8 0 15-2 21-5 4-1 6-3 9-5 3-2 5-2 8-1 3 0 5 0 7-1 1 0 2-1 2-2-3 1-5 1-8 0-4-2-7-1-11 2-6 5-13 6-21 7-6 1-12 1-17 0-3-1-5-2-7-3-2-2-4-3-7-4-2 0-5-2-5-5-1-3 1-5 4-7 4-2 9-4 14-5 5 0 10-1 15 0 4 1 7 4 6 8-1 2-4 4-7 5-2 1-5 0-7-1-2 0-3-1-5-1 0 0-1 0-1 0-2 0-2-2-1-3 1-1 2-1 3-1 2-1 4-1 5-1 1 0 1 0 2-1-1 0-1 0-1 0-3 0-5 0-8 1-1 0-2 0-2 1-2 2-2 5 1 6 4 0 7 2 11 2 3 1 7 1 10-2 5-4 5-11-1-15-3-1-6-2-9-2-7 0-14 1-21 3-1 1-2 1-3 2-3 2-5 1-8 1-4-1-7-3-10-5-4-3-5-7-3-11 0-2 1-4 1-6 0-3-3-6-6-5-2 0-4 1-5 1-5 3-12 2-16-2-3-3-6-6-9-8-2-2-3-4-5-6 3 0 4 1 6 2 4 3 8 6 13 7 7 3 14 1 20-4 7-5 15-9 24-10 7-1 13 1 20 3 4 1 8 1 12 2 2 0 4 1 5 2 4 2 6 5 6 9 0 4-2 7-5 8-6 4-12 7-20 8-6 0-11-2-16-4-3-2-3-6-1-9 3-2 6-4 10-4 4-1 9-1 13 1 2 1 3 1 3 3 0 2-1 2-3 2-2 1-5 1-8 1-1 0-1 0-2 1 0 0 1 1 1 1 4 0 8 0 11-1 2-1 3-2 3-4 0-2-1-3-3-4-7-2-15-3-22 0-4 1-7 5-7 10 0 3 1 5 4 7 10 5 20 5 30 1 2-2 4-3 7-4 3-2 6-4 7-8 0 0 0 0 1 0 0 1 0 3 1 5 1 3 3 6 6 7 8 5 17 5 26 2 6-2 12-6 16-12 5-6 3-14-4-18-1-1-2-1-2-2-2-7-6-11-13-11-3 0-6 0-9 1-1-6-6-10-11-12-7-3-14-3-20 2-1 0-1 0-2 0-6-2-11 0-16 3-5 3-7 7-5 13-1-1-3-1-5-1-11-2-20 1-30 6-2 1-3 2-5 3-6 6-13 7-21 3-3-1-7-3-10-5-1 0-3-1-4-1-1-1-2 0-2 1 0 3 2 5 4 6 3 3 5 6 7 9 2 4 6 6 10 6 4 0 8 0 12-3 0 0 1-1 3-1 1-1 2-1 4 0 1 2 1 3 0 5 0 1-1 1-1 2-4 6-3 13 3 17 4 2 8 4 12 4 1 0 1 0 1 0 0 2-1 4-2 5 0 4 2 8 6 10 4 1 7 2 9 5 3 3 7 3 11 3 3 1 5 1 7 1z m163-10c-1 0-3 0-8-2-5-1-9-2-12-1-2 0-4 0-4 0-1 0-1 0 0-1 2-2 3-2 5-2 4 0 5 0 5-2 0-1 0-2 0-2-1 0-2-1-3-1-2 0-2 0-6 3-5 3-5 3-3-2 2-7 7-14 13-20 5-4 10-6 14-7l0 0c2 0 6 0 7 0 1 1 2 2 1 5-1 5-1 5 2 6 2 0 2 1 2 4-1 4-2 8-4 11-2 5-7 10-8 11 0 0-1 0-1 0z m-35-3c-1 0-5-4-8-7-5-5-9-11-11-18-2-4-2-8-2-11 1-5 3-8 5-8 0 0 2 1 3 2 4 2 5 2 6-1 0 0 1-1 1-1 1 0 4 2 7 4 5 3 12 11 13 14 1 2 1 3-3 8-4 5-5 8-6 12-1 2-1 4-1 4 0 0 0 0-1-1-1-2-1-3 0-5 1-4 1-5-2-5-1 0-1 0-2 0-1 1-1 3 1 8 0 3 1 5 0 5 0 0 0 0 0 0z m24-72c14-1 28-5 42-10l-17-29c-11-18-21-35-22-37-3-3-3 3-3 39z m-23 0l0-37-1-42-24 33c-12 16-21 29-24 33 7 4 15 6 23 8 5 1 9 3 14 4 4 0 8 1 11 1 1 0 1 0 1 0z m85-19c2-1 5-3 7-4 9-5 16-12 22-20 2-3 3-5 4-7-1-1-2-2-4-3-38-21-69-38-70-37 0 0 9 16 20 35 10 17 19 33 21 36z m-153-5c2-4 28-40 43-60l6-7-7 3c-4 2-36 16-71 32 5 9 11 18 19 25 3 3 6 5 10 7z m-26 38c-5 1-10 0-14-2-2-1-4-1-4-3 0-2 2-3 4-3 4-2 9-1 13 0 0 1 1 1 2 0 0-1-1-1-1-2-2 0-4-1-5-2-4-1-8 0-12 1-2 1-4 3-4 6 0 2 1 4 3 5 2 1 4 2 7 2 2 1 4 1 7 1-3 3-5 6-6 9-1-2-2-4-3-6-2-5-7-6-12-7-4-1-8 0-11-2-5-1-6-6-3-9 4-3 9-6 15-5 1 0 3 1 5-1 7-5 18-3 24 4 1 1 2 3 2 5 0 4-2 8-7 9z m22 28c-8 3-16 4-24 0-5-3-7-7-6-13 2-5 4-9 10-11 1 0 3 0 5 1 3 3 5 6 7 10 1 1 1 1 0 2 0 1-1 1-2 0-2 0-3-1-5-1 0-1-1-1-1-1-1 1-1 2 0 2 1 2 3 4 5 5 3 1 7-1 8-4 1-3 0-5-2-8-2-2-4-3-6-5-2-2-4-3-7-4 3-1 5-3 5-6 1-2 2-2 4-3 2 0 5 1 7 1 5 0 8 3 9 7 1 2 2 3 4 4 5 3 6 9 3 14-4 5-8 8-14 10z m180-28c-3 1-5 3-7 4-2 2-5 4-7 6-1 2-3 5-2 8 1 3 5 5 9 4 2-1 4-3 5-5 1-1 1-1 0-2 0-1-1 0-1 0-2 1-4 2-5 2-1 0-2 0-3 0 0-1 0-2 0-3 2-4 5-7 8-10 2-1 4-1 5-1 6 2 9 6 10 12 2 6 0 10-6 13-8 4-16 3-25 0-6-2-10-5-14-10-4-5-2-12 3-14 2-1 3-3 4-5 1-4 4-7 9-8 3 0 5 0 8 0 2 0 3 1 3 3 1 3 3 5 6 6z m42-4c-4 1-8 1-12 2-5 1-10 2-13 7-1 2-2 5-2 7-2-4-3-7-7-10 3 0 6 0 8-1 2 0 5-1 7-2 2-2 3-3 3-6 0-2-2-4-4-5-4-2-8-2-12-1-2 0-4 1-5 2-1 0-2 1-1 2 0 1 1 0 1 0 5-2 9-3 14-1 2 1 4 2 4 4 0 2-2 2-4 3-5 2-10 3-15 2-5-2-7-5-7-9 0-3 1-4 2-5 6-8 17-10 25-4 2 1 4 1 6 0 5 0 10 2 15 5 3 3 1 9-3 10z"/>
<glyph glyph-name="shuriken1" unicode="&#113;" d="M419 212c-3 0-6 0-9 0-24 0-44 19-44 44 0 24 20 44 44 44 3 0 6 0 9-1l91 198c6 13 0 19-13 13l-200-91c2-5 3-11 3-17 0-24-20-44-44-44-24 0-44 20-44 44 0 5 1 10 2 15l-199 92c-13 7-19 1-13-12l91-198c3 1 6 1 9 1 24 0 44-20 44-44 0-25-20-44-44-44-3 0-6 0-9 0l-91-197c-6-13 0-19 13-13l197 92c0 3 0 5 0 8 0 24 20 44 44 44 24 0 44-20 44-44 0-4 0-7-1-10l198-90c13-6 19 0 13 13z m-163-24c-37 0-68 31-68 68 0 37 31 68 68 68 37 0 68-31 68-68 0-37-31-68-68-68z"/>
<glyph glyph-name="ryo" unicode="&#114;" d="M256 446c-105 0-190-85-190-190 0-104 85-190 190-190 104 0 190 86 190 190 0 105-86 190-190 190z m73-253c0-6-4-10-10-10l-127 0c-5 0-10 4-10 10l0 127c0 5 5 10 10 10l127 0c6 0 10-5 10-10z m-73-193c-141 0-256 115-256 256 0 141 115 256 256 256 141 0 256-115 256-256 0-141-115-256-256-256z m0 492c-130 0-236-106-236-236 0-130 106-235 236-235 130 0 235 105 235 235 0 130-105 236-235 236z"/>
<glyph glyph-name="unionshinobi" unicode="&#115;" d="M236 4c-40 4-88 19-118 39-76 49-118 124-118 210 0 109 67 202 170 238 15 5 39 11 45 11 2 0 4 1 4 1 1 1 4 3 7 4 7 3 13 2 22-5 16-12 24-28 19-37-2-2-3-2-20-2-16 0-20-1-34-4-76-20-133-71-155-140-7-21-8-35-9-63 0-36 4-55 18-84 21-44 54-78 100-100 60-30 122-32 184-6 35 14 63 34 86 61 38 45 56 101 51 157-3 38-12 68-31 99-26 42-69 76-113 90-10 4-17 5-47 10-9 2-16 4-16 4 2 2 33-1 48-4 63-11 102-36 137-85 30-41 43-83 46-138 3-84-44-172-117-218-16-9-40-20-57-26-35-11-65-15-102-12z m72 117c-44 7-82 25-106 52-8 10-21 30-24 38-2 6-2 7 0 9 2 1 4 0 17-13 11-11 18-18 28-23 29-18 61-28 96-29 19 0 20 2 11 20-3 6-8 17-11 24-8 17-7 27 0 16 3-5 24-28 36-39 4-3 14-13 23-20 10-8 18-16 18-18 4-7-4-14-22-17-13-3-50-3-66 0z m-189 10c-4 4-6 10-6 22 0 10 0 11 5 15 7 9 15 22 20 33 3 7 6 12 7 12 6 2 3-43-5-65-6-16-14-23-21-17z m295 68c-6 1-7 2-29 23-12 11-24 23-27 26-4 3-7 6-6 7 0 0 12-2 25-5l25-6 8-8c14-15 20-35 10-37-1-1-4 0-6 0z m-146 3c-3 1-9 6-13 10-9 10-19 30-14 30 1 0 4-1 8-3 10-5 19-4 26 1 3 2 6 4 6 4 0 0 1-5 1-12 0-8 0-13 2-17 2-7 2-14 0-15-4-2-11-1-16 2z m-3 52c-1 1-5 4-7 7-10 12-12 14-18 18-8 4-12 8-12 11 0 2 1 2 8 2 13-2 21 1 30 11 17 17 29 53 31 89l1 14-3-1c-2 0-10-2-19-3-22-4-23-4-21-6 1-1 5-3 9-5 13-7 13-9-3-31-7-8-12-16-12-16 0 0 1-2 3-5 5-6 9-15 9-21 0-5-1-6-4-7-5-1-12 1-19 7l-7 6-27-28c-21-22-28-29-33-32-11-5-14-5-15-2 0 3 1 5 5 10 10 11 25 31 38 50l13 19-4 3c-3 3-8 8-12 11-5 4-8 8-7 8 0 1 8-1 16-3 9-2 17-3 17-2 1 0 3 3 5 8 3 5 4 8 3 13-1 9-4 12-13 13-12 1-43 12-40 14 4 2 25 9 37 12 20 5 73 15 90 16 7 1 13-1 30-14 8-6 10-8 13-14 4-9 4-12-2-15-3-1-5-4-6-6-2-4-7-21-9-33-1-10-8-30-14-46-6-16-22-36-37-47-8-6-9-7-14-5z"/>
<glyph glyph-name="vapeur" unicode="&#116;" d="M175 195c8-3 16-7 23-12 2-1 4-1 6 0 2 1 3 3 3 5-1 38-18 56-28 64-3 3-7 4-11 5l0 0c-7 0-13-1-18-5-5-4-8-10-9-16-1-16 8-31 23-37 3-2 7-3 11-4z m-79 210c12 10 28 18 48 20 19 3 39 0 56-7 3-1 6 0 9 1 2 2 4 5 4 8 1 13 3 27 7 40 1 4-1 9-6 11-22 8-46 9-69 3-24-7-45-23-58-45-3-5-6-12-9-18 0 0 0-1 0-1-4-10 9-19 18-12z m339-97c0 0-3 27-17 43-4 3-9 4-14 2-12-6-25-11-38-15-5-1-8-6-8-11-1-10-3-20-7-29-1-3-3-5-6-6-3-2-7-1-10 0-5 3-7 9-5 15 17 41-15 63-17 64-2 1-4 4-5 8 0 3 1 6 3 8 4 5 10 6 15 3 9-7 17-15 22-24 3-5 8-7 13-6 11 3 22 8 33 13 12 7 20 20 20 34 0 25-7 54-34 77-10 10-21 17-34 22-21 9-44 8-65-2-20-10-35-28-41-50-4-16-5-33-3-50 1-8 2-16 4-23 3-8 4-16 5-24 0-4-1-9-4-13-2-4-5-4-7-4-6 0-11 4-11 10-1 9-2 17-5 25l0 0c-1 5-4 9-8 12-19 13-41 19-64 16-1 0-2-1-3-1-62-10-68-97-8-117 18-7 42-10 72-7 13 1 26-3 37-11 2-2 3-3 5-5 2-2 4-5 4-8 0-3-2-6-4-8-5-5-11-4-16 0-1 1-2 2-3 2-2 2-5 3-7 4-6 3-13-3-10-9 14-29 14-110 14-116l0-29c0 0-34 15-52-12 0 0-7-16-1-30 0 0-25-27-75-37-11-2-8-19 3-19l289 0c12 0 16 16 5 21-9 4-18 9-26 14-13 8-23 18-31 31-7 9-16 17-27 20-7 3-16 1-21-6-4-5-8-13-8-25 0-6-6-11-12-11l0 0c-6 0-11 6-11 12 0 15 5 26 10 35 2 2 2 4 2 7-1 15-2 41 4 67 9 40 41 72 81 80 1 0 2 0 3 0 11 2 21 5 31 9 20 9 46 26 43 54z m-83-106c-9 4-20 2-27-5-8-8-19-24-22-53-1-2 1-4 2-5 2 0 5 0 6 2 4 4 9 8 14 11 2 1 5 2 8 2 7 2 29 7 30 28 0 12-5 17-11 20z"/>
<glyph glyph-name="eau" unicode="&#117;" d="M512 257c0 16-1 24-3 39 0 0 0 0 0 0 0 1-1 1-1 2 0 1-1 1-1 1 0 1 0 1-1 1 0 1 0 1-1 1 0 0-1 1-1 1-1 0-1 1-2 1 0 0 0 0 0 0-1 0-1 0-2 0 0 0 0 0-1 0 0 0 0 0 0 0-1 0-1-1-2-1-1 0-1-1-1-1-1 0-1 0-1-1-1 0-1 0-1-1 0 0-1-1-1-1 0-1-1-1-1-2 0 0 0 0 0 0-2-21-19-50-43-76-11-11-22-21-34-29-22-16-47-26-76-26-17 0-36 4-55 11-42 16-46 59-46 77-2 32 12 61 25 67 0 0 2 0 2 1 0 0 0 0 1 0 20 4 39 1 48-8 3-4 4-9 2-16-6-17-2-36 11-47 14-11 31-11 48-1 20 12 31 31 31 52 0 11-3 21-9 31 15-4 30-3 41 8 11 11 14 28 7 44-8 19-31 41-73 41-15 0-26-1-37-2-16-1-30-1-47 2-15 2-21 7-22 11-1 2 0 5 2 6 3 3 11 6 23 3 18-6 29 1 35 6 8 9 12 22 9 33-3 11-11 19-23 22-18 4-37 6-57 6-140 1-255-114-255-255 0-117 78-215 184-246 1 0 1-1 2-1 0 0 0 0 0 0 2 0 4-1 6-1 16-4 33-7 50-7 2 0 4 0 7 0 1 0 3 0 4 0 1 0 1 0 1 0 0 0 0 0 1 0 0 0 0 0 1 0 1 0 2 0 3 0 1 0 2 0 3 0 139 3 250 116 250 255z m-287-118c-1 0-3 0-5 0-13 3-13 15-14 24-1 9-1 12-6 20-2 3 1 7 4 7 1 0 1 0 3-1 14-7 35-20 35-34 0 0-3-16-17-16z m31 356c18 0 36-1 53-5 6-2 9-6 10-10 1-5 0-12-5-16-4-4-10-5-18-3-15 5-31 3-40-7-6-6-9-14-6-23 3-6 10-18 35-23 20-3 34-2 52-1 10 1 21 1 35 1 34 0 52-16 58-30 4-10 3-19-4-25-12-13-45 2-60 11-1 1-2 1-4 2-4 3-9 2-12-2-2-4-1-10 3-12 0-1 2-2 4-3 20-12 31-30 31-48 0-15-8-28-22-36-11-7-21-7-28-1-8 6-11 18-7 29 4 12 3 23-5 32-12 14-37 19-64 14-2-1-4-1-5-1-10-3-29-11-43-23-5 17-23 28-37 36-9 5-21 12-21 16 0 5 7 13 14 15 6 2 12-2 17-11 8-14 23-24 36-23 11 1 20 7 26 18 4 9 4 20 0 29-3 8-10 17-26 24-4 2-9-1-11-5-1-4 1-9 5-11 9-3 14-8 16-14 2-5 1-11 0-14-2-6-6-9-10-9-7-1-16 6-21 14-13 23-30 21-36 19-15-3-27-18-27-31 0-14 14-22 28-31 22-13 35-22 30-38-1-2-2-3-4-4-4-2-10-2-14 0-6 2-12 7-17 11-7 6-14 12-23 10-6 0-10-4-14-10-2-3-3-6-2-10 2-8 11-12 25-20 23-13 43-24 43-41 0-1 0-1 0-3 0 0 0-1 0-2 0-1-1-2-1-3 0 0 0-1 0-1 0-1-1-2-1-2 0-1-1-2-2-3-1-1-1-1-2-2-4-3-11-5-16-5-8 0-19 3-21 14-2 15-27 33-48 34-10 1-19-1-26-8l-2-3c-1 0-1-1-2-2 0-1-1-2-2-3 0 0 0 0 0-1-1-1-1-1-1-2-1 0-1-1-1-1 0-1 0-2 0-3-3-12 13-22 34-35 35-22 63-41 52-65-2-6-6-11-12-14-6-4-13-5-19-5-13 0-24 8-31 22-6 14-13 22-22 22-6 0-12-4-16-10-2-4-4-9-4-14-19 34-31 75-31 117 0 131 107 238 239 238z m186-235c-2 0-4 0-6 1-14 5-13 17-12 27 1 10 1 13-3 21-1 3 1 7 4 7 1 0 3 0 3-1 13-10 34-26 31-41 0 1-4-14-17-14z m-91 219c19-2 47-8 52-22 0 0 3-20-18-23l-3 0c-13 0-18 11-22 19-3 8-5 12-14 18-2 2 0 8 5 8z"/>
<glyph glyph-name="feu" unicode="&#118;" d="M287 512c-6-1-10-5-10-11 0 0-3-29-29-59-21-25-48-49-55-102-5-37-3-61 4-80 7-19 16-32 23-50 8-22 0-35-10-39-10-5-25-2-38 21-24 54 6 131 6 131 3 6 1 12-4 15-5 3-11 2-15-2 0 0-19-21-38-50-18-29-38-66-39-103-3-67 24-118 64-148 40-30 92-41 142-32 0 0 0 0 0 0 70 14 118 61 135 121 17 59 4 131-44 195-4 5-10 7-15 4-5-2-8-8-6-13 3-13 2-21 0-26-2-5-5-8-9-9-8-2-22 3-33 22-20 40-6 95 0 133 7 47-19 78-19 78-2 3-6 4-9 4 0 0-1 0-1 0z"/>
<glyph glyph-name="vent" unicode="&#119;" d="M136 94c28-7 83-14 133 22 0 0 63 43 125 38 0 0 58-2 94-49 11-14-2-34-19-29-16 4-35 7-56 7-24 0-47-4-69-14-11-5-22-11-33-17-16-10-34-18-52-22-38-8-94-7-132 50-3 3-3 7 0 10 2 3 5 5 9 4z m362 81c4-2 8-2 11 1 3 3 4 7 2 11-20 36-48 87-151 95 0 0-59 1-106-12-17-4-34-6-51-5-26 2-57 10-69 39 0 0-15 39 14 67 10 9 24 15 38 16 19 1 49-11 65-44 2-4 6-7 11-7 4 0 9 2 11 6 11 16 22 44 8 77-9 21-24 38-45 49-12 7-26 12-39 14-80 17-160-29-186-105-1-1-1-2-1-3-17-50-12-104 13-149 15-26 38-53 75-67 0 0 85-30 145 13 16 11 33 20 51 25 26 8 62 15 99 11 0 0 58-6 105-32z"/>
<glyph glyph-name="akatsuki" unicode="&#120;" d="M307 432c46 0 86-26 104-68 11-2 22-5 32-10 48-23 73-76 61-128-12-52-59-88-112-88-20-28-52-45-87-47l-4 0c-13 1-26 4-38 10-23-16-51-22-79-16-27 5-51 22-66 46-45 0-86 25-107 65-10 19-13 41-9 62 2 11 10 21 21 25 11 4 23 3 32-3 5-2 11-1 14 4 12 15 29 25 49 29 9 28 28 51 54 65 14 8 30 11 46 10 21 28 54 44 89 44z m1-16c-32 0-61-16-79-41l-3-5-5 1c-14 2-29-1-41-7-23-13-40-35-47-61l-1-6-6 0c-17-3-33-11-43-25-9-10-25-13-37-7-5 3-11 4-16 2-6-2-10-7-11-13-4-17-1-35 7-50l0-1c19-35 56-56 96-55l6 0 3-4c7-15 19-26 34-34 29-15 65-12 92 8l4 4 6-3c10-6 22-10 34-10l3 0c31 1 59 17 76 43l3 5 15 0c38 0 73 22 88 57 5 12 8 25 8 38 0 38-22 72-57 88-11 4-22 7-33 9l-6 0-1 5c-13 31-40 54-73 60-5 1-11 1-16 2z m7-26c31-4 56-28 60-60 1-4 5-7 9-7 15 0 29-3 42-9 34-15 49-53 36-87-13-34-51-52-86-41l-2 0c-16 6-27 22-27 40 0 13 6 25 17 33 4 2 5 7 3 11-2 3-5 5-8 5-2 0-4 0-5-1-15-11-24-27-25-46-1-23 12-44 33-54-12-23-34-37-59-38-14-1-28 6-36 18-2 2-4 4-7 4-3 0-6-2-8-5-12-19-35-29-58-26-22 4-41 21-46 44-3 11-2 23 2 34 5 16 22 26 40 22 8-1 15-6 20-13 3-4 7-6 11-4 4 1 6 4 6 8 0 2 0 3-1 5-5 7-12 13-20 18-25 13-55 3-69-22-7-13-10-28-8-43-32-5-64 12-80 41-3 6-5 13-5 20 22-6 45 1 59 18 10 14 27 19 42 14 3-1 6 0 8 1 2 2 4 5 4 8-1 26 13 50 36 62 10 5 21 6 31 3 0-2 0-3-1-4-4-15-1-32 8-46 8-13 22-23 38-26 4 0 7-1 11-1 12 1 23 4 33 11 9 7 17 16 21 27 1 3 1 6-1 8-1 2-3 3-6 4-4 1-8-2-10-6-3-7-8-14-14-18-9-7-21-9-32-7-11 3-21 10-27 19-5 12-6 25-2 37l1 3c11 30 40 49 72 46z"/>
<glyph glyph-name="yeux" unicode="&#121;" d="M507 269c0 0-121 145-251 145-131 0-252-145-252-145-5-7-5-19 0-26 0 0 121-146 252-146 130 0 251 146 251 146 6 7 6 19 0 26z m-251-150c-78 0-141 61-141 137 0 75 63 136 141 136 78 0 141-61 141-136 0-76-63-137-141-137z m0 221c-48 0-87-38-87-84 0-47 39-85 87-85 48 0 87 38 87 85 0 46-39 84-87 84z m-28-27c-15 0-27-12-27-26 0-14 12-26 27-26 15 0 26 12 26 26 0 14-11 26-26 26z"/>
<glyph glyph-name="eventail" unicode="&#122;" d="M413 413c-64 64-149 99-239 99-59 0-118-16-169-45 0 0 0 0 0-1 0 0-1 0-1 0 0 0 0 0 0 0 0 0 0 0-1-1 0 0 0 0 0 0 0 0 0 0 0 0 0 0-1-1-1-1 0 0 0 0 0 0 0 0 0 0 0-1 0 0 0 0-1 0 0 0 0 0 0 0 0 0 0-1 0-1 0 0 0 0 0 0 0 0 0 0 0-1 0 0 0 0-1 0 0 0 0 0 0-1 0 0 0 0 0 0 0 0 0 0 0-1 0 0 0 0 0 0 0 0 0 0 0 0 0-1 0-1 0-1 0 0 0 0 0 0 0-1 0-1 0-1 0 0 0 0 0 0 0-1 0-1 0-1 0 0 0 0 0 0 0-1 0-1 0-1 0 0 0 0 1 0 0-1 0-1 0-1 0 0 0 0 0 0 0 0 0-1 0-1 0 0 0 0 0 0l93-160c0 0 0 0 0 0l53-90-35 20c0 0 0 0 0 0-5 3-11 1-14-3-21-35-15-80 13-108 17-17 40-26 63-26 16 0 32 4 46 12 4 3 6 9 3 14l-20 35 250-146c0 0 0 0 1 0 1-1 2-1 4-1 0 0 1 0 1 0 0 0 0 0 0 0 0 0 1 0 1 0 1 1 1 1 1 1 0 0 1 0 1 0 0 0 0 0 0 0 1 0 1 0 1 0 0 1 0 1 1 1 0 0 0 0 0 0 0 0 0 1 1 1 0 0 0 0 0 0 0 0 0 1 1 1 0 0 0 0 0 0 0 0 0 1 0 1 0 0 0 0 0 0 0 0 0 0 0 0 77 132 55 300-53 408z m-239-106c4 0 7-1 10-1l-15-101-52 89c18 8 38 13 57 13z m30-4c21-5 40-14 56-28l-71-71z m71-43c14-16 23-35 28-55l-99-15z m31-76c2-22-2-45-12-66l-89 51z"/>
<glyph glyph-name="bambou" unicode="&#65;" d="M153 334l-63 0c-11 0-21-9-21-21l0-1c0-7 4-13 9-17l0-77c-5-4-9-11-9-17l0-1c0-3 1-5 1-7l-21-15c-30-4-49-59-49-96l0-78 9 0c31 0 52 58 52 96l0 65 8 6c1-6 4-11 9-15l0-112c-5-3-9-10-9-16l0-2c0-11 10-21 21-21l63 0c11 0 21 10 21 21l0 2c0 7-4 13-9 16l0 112c5 4 9 11 9 17l0 1c0 5-2 9-5 13 3 3 5 7 5 12l0 1c0 7-4 13-9 17l0 77c5 4 9 11 9 17l0 1c0 13-10 22-21 22z m142-4l0 142-87-55 0-87c-2-2-5-5-6-7l-11 22 0 67c0 38-21 96-52 96l-9 0 0-78c0-36 18-89 46-95l24-46c0 0 0-1 0-1l0-2c0-7 3-13 8-16l0-86c-5-4-8-10-8-17l0-1c0-5 1-9 4-12-3-4-4-8-4-13l0-1c0-7 3-13 8-17l0-77c-5-3-8-10-8-16l0-2c0-12 9-21 20-21l63 0c11 0 21 9 21 21l0 2c0 6-4 13-9 16l0 77c5 4 9 11 9 17l0 1c0 5-2 9-5 13 3 3 5 7 5 12l0 1c0 7-4 13-9 17l0 86c5 3 9 10 9 16l0 2c0 4-2 9-5 12 3 4 5 8 5 12l0 2c0 6-4 12-9 16z m190-78l-39 39c30 2 50 58 50 95l0 78-8 0c-32 0-52-57-52-95l0-57-12 3c1 2 1 3 1 5l0 2c0 7-3 13-8 16l0 131c5 3 8 10 8 16l0 2c0 11-9 21-21 21l-62 0c-11 0-21-10-21-21l0-2c0-7 4-13 9-16l0-130c-5-3-9-10-9-16l0-2c0-4 2-9 4-12-2-4-4-8-4-12l0-2c0-7 4-13 9-16l0-130c-5-3-9-10-9-16l0-2c0-4 2-9 4-12-2-4-4-8-4-12l0-2c0-7 4-13 9-16l0-83 87 0 0 83c5 3 8 10 8 16l0 2c0 4-2 8-4 12 2 3 4 8 4 12l0 2c0 7-3 13-8 16l0 129c5 3 8 10 8 16l0 2 9-3-2-5c-1-2-15-35 17-74l56-56 4 13c1 3 14 44-24 81z"/>
<glyph glyph-name="yang" unicode="&#66;" d="M353 150c0-21-16-37-37-37-21 0-37 17-37 37 0 22 17 39 38 38 21 0 37-17 36-38z m-48 362c-40-1-80 1-118-19-98-54-152-168-132-278 13-74 49-133 111-175 45-31 95-41 150-40 144 16 178 176 115 246-80 94-169 28-196 123-22 110 171 145 70 143z m-35-20c-129-51-78-221 33-225 82-1 124-67 120-123-14-182-310-109-334 63-15 73-1 127 22 177-7-35-8-89 9-125 5-12 18-7 16 3-13 124 44 217 134 230z"/>
<glyph glyph-name="foudre" unicode="&#67;" d="M381 204c15 14 12 34-6 44l-33 19c-18 11-29 35-24 55l41 171c4 20-4 25-19 11l-207-196c-15-14-12-34 6-44l33-19c18-11 28-35 24-55l-41-171c-4-20 4-25 19-11z"/>
<glyph glyph-name="glace" unicode="&#68;" d="M477 228c-7 8-18 8-26 1l-44-40-32 18 39 36c3 3 6 8 6 13 0 5-3 10-6 13l-39 36 32 18 45-40c3-3 7-5 12-5 5 0 9 2 13 6 7 8 6 19-1 25l-36 33 31 17c9 5 12 16 7 25-5 8-16 11-25 6l-31-18-10 47c-2 10-11 16-21 14-10-2-16-11-14-21l12-58-32-18-11 50c-1 5-4 10-8 12-5 3-10 4-15 2l-50-16 0 37 58 18c9 3 14 13 11 23-3 9-13 14-23 11l-46-15 0 36c0 10-8 18-17 18-10 0-18-8-18-18l0-36-46 15c-9 3-19-2-23-11-3-9 3-20 12-23l57-18 0-37-50 16c-5 2-10 1-14-2-5-2-8-7-9-12l-11-51-32 19 12 58c3 10-4 20-14 21-9 2-19-4-21-14l-10-47-31 18c-9 5-20 2-24-7-5-8-3-19 6-24l31-18-35-32c-8-7-8-18-1-26 3-3 8-5 13-5 4 0 9 1 12 4l44 40 33-18-39-35c-4-3-6-8-6-14 0-5 2-9 6-13l39-35-33-18-44 40c-8 6-19 5-26-2-6-7-6-18 1-25l36-32-31-18c-9-5-11-16-6-24 3-6 9-9 15-9 3 0 6 0 9 2l32 18 10-47c2-9 9-14 17-14 1 0 3 0 4 0 10 2 16 11 14 21l-12 58 32 19 11-52c1-4 4-9 8-11 3-2 6-3 9-3 2 0 4 1 6 2l49 16 0-37-57-19c-9-3-14-13-11-22 3-8 10-13 17-13 2 0 4 1 6 1l45 15 0-36c0-9 9-18 18-18 10 0 18 9 18 18l0 36 46-15c1 0 4-1 5-1 8 0 15 5 17 13 4 9-2 19-11 22l-57 19 0 37 50-16c4-2 10-2 14 1 4 3 8 7 9 12l11 51 32-18-13-59c-2-10 5-19 14-21 2 0 3 0 4 0 8 0 16 6 18 14l10 47 31-18c3-1 6-2 9-2 6 0 13 3 16 9 5 9 2 20-7 25l-31 17 36 33c6 6 6 17 0 25z m-102 28l-33-29-24 14c-12 7-12 24 0 31l24 14z m-59 103l9-43-25-14c-11-7-26 2-26 15l0 28z m-120 0l41-13 0-28c0-13-14-22-26-15l-24 14z m-59-103l32 30 24-14c12-7 12-24 0-31l-24-14z m59-103l-9 43 24 14c12 7 26-2 26-15l0-28z m120 0l-42 13 0 28c0 13 15 22 26 15l25-14z"/>
<glyph glyph-name="yin" unicode="&#69;" d="M188 24c-47-9 63-55 165 8 69 55 102 128 103 216-4 182-147 252-236 262-197 29-224-254-38-255 84-1 127-68 123-126-12-87-69-98-105-105m-13 396c21-1 38-17 38-39 0-22-17-39-39-38-22 0-38 17-38 38 0 22 17 39 39 39z m202-136c29-43 39-118-11-187-24-25-25-3-15 12 8 9 44 84 4 178-15 23 4 20 22-3z"/>
<glyph glyph-name="poisson" unicode="&#70;" d="M450 348c0-9-7-17-17-17-9 0-16 8-16 17 0 9 7 17 16 17 10 0 17-8 17-17z m59 33c0 1 0 1 0 1-1 10-2 16-8 18-1 0-1 0-1 0-1 0-1 0-1 0 0 0 0 0 0 0-2 0-6 1-13 2 0 0 0 0 0 0 0 0-1 0-1 0 0 0 0 0 0 0-1 0-1 0-2 0 0 0 0 0 0 0 0 0-1 0-1 0 0 0-1 1-1 1 0 0 0 0-1 0 0 0 0 0 0 0-1 0-1 0-2 0 0 0 0 0 0 0-1 0-1 0-1 0-1 0-1 0-1 0 0 0-1 0-1 0 0 0-1 0-1 0 0 0-1 0-1 0 0 0-1 0-1 0 0 0-1 0-1 0 0 0-1 0-1 0 0 0-1 0-1 0 0 0-1 0-1 0-1 0-1 0-1 0 0 1-1 1-2 1 0 0 0 0 0 0-1 0-1 0-2 0 0 0 0 0 0 0-1 0-2 0-2 0 0 0 0 0 0 0-1 0-2 0-3 0 0 0 0 0 0 0-1 0-2 0-3 0-1 0-1 0-2 0 0 0-1 0-2 0 0 0-1-1-2-1 0 0 0 0-1 0-25-1-54-6-83-20-14 7-63 28-110 10-2-1-3-3-4-5-1-2-1-5 0-7 0 0 10-19 10-44-1-33-18-61-51-83 0-1-1-1-1-1-13-6-26-9-37-9-6 0-11 1-16 3-7 2-17 7-14 24 0 2 0 3 1 5 0 0 0 1 0 1 1 3 9 21 28 28 16 7 38 5 63-7 3-1 6 0 9 1 2 2 3 6 3 9-1 1-9 42-44 57-24 10-52 6-86-12-5 16-16 44-41 62-19 13-42 17-68 12-4 0-6-3-7-7 0-3 1-7 5-8 1-1 41-27 45-141 0 0 0-1 0-1 3-21 6-46 17-70 14-28 34-53 60-72 39-28 93-45 147-45 1 0 2 0 3 0 66 1 129 35 175 93 11 14 21 28 29 44 26 50 36 107 28 161z m-481 32c14-1 26-5 37-12 30-21 37-62 38-63 0-2 2-5 4-6 3-1 6-1 8 1 33 20 60 26 80 17 14-6 23-19 28-29-22 7-42 7-59 0-13-6-22-14-28-22-6 5-15 7-28 7-5 0-10 0-14-1l0 0c-13-1-22-4-29-8-6 65-24 99-37 116z m334-146c-20 30-17 66-14 82l20 17c33 17 66 21 90 21 15 0 27-2 34-3 0-1 0-2 0-4 0 0 0-1 0-1 8-51-2-105-26-151-2-4-5-8-7-12-46 6-79 23-97 51z m-16 106c-13-8-26-19-38-32-5-6-11-12-16-18-7-8-14-16-22-24 6 14 7 27 7 38 1 19-4 34-7 43 29 8 59 0 76-7z m-11-221c-1-1-2-1-2-2-1 3-2 7-3 10-3 13-7 30-19 42-13 12-30 16-42 19-3 1-7 2-10 3 1 0 1 1 2 2 9 8 21 13 34 13 14 0 27-5 37-16 10-10 16-22 16-36 1-13-4-26-13-35z"/>
<glyph glyph-name="explosion" unicode="&#71;" d="M167 88c43-23 93-28 140-15 2 0 4 2 5 4 1 2 2 4 1 6l-2 6c-1 4-6 6-10 5-42-11-86-6-123 14-3 1-6 0-7-2l-6-11c-1-1-1-3-1-4 1-1 2-2 3-3z m268 102c0 2 0 4-1 6-1 1-2 3-4 3l-7 3c-4 1-8-1-10-5-12-33-34-61-64-81l-25 38c-4 7-15 3-13-5 1-5 2-10 4-14l48-102c3-7 10-12 18-12l6 0c5 0 10 3 12 8 2 4 2 10-1 14l-36 55c33 22 59 54 73 92z m-273-21l-31-25c-48 54-56 133-20 196 3 5 1 12-4 15l-4 3c-1 1-3 1-5 1-1-1-3-2-4-3-44-71-36-163 19-226l-103-82c-6-5-10-13-10-21l0 0c0-12 7-22 18-26 10-3 22 0 30 8l124 150c6 7-3 16-10 10z m284 87c1 47-17 92-48 127l70 68c6 6 7 16 0 22l-11 11c-7 7-18 6-24-2l-96-136c-6-8 5-17 12-10l33 31c27-30 42-70 42-111 0-3 0-6 0-8l-12 0c-9 0-10-13-2-15l87-18c4-1 8 0 11 3 3 2 4 6 4 9l0 9c0 6-5 12-11 12l-55 0c0 2 0 5 0 8z m-133 175c2-9-4-17-13-18-8-1-16 4-17 13-2 8 4 16 12 18 9 1 17-5 18-13z m66-180l-40 8c-1 25-13 48-33 63-19 15-44 20-68 15-6-2-9-7-8-12l5-31c0-2-1-4-3-5-2-1-4 0-5 2l-21 31-49 73c10 10 19 19 34 30 1 1 2 2 2 4 0 2-1 3-2 4-1 0-3 1-4 0-15-6-28-13-41-22l-59 86c-6 9-17 15-28 15l-13 0c-5 0-10-3-12-7-2-5-1-10 2-14l153-186c-10-14-16-32-16-51 1-43 36-79 80-81 32-1 62 16 77 45 2 3 0 8-3 10l-11 8c-1 1-2 3-1 4 0 2 2 3 4 3l59-2c6 0 8 9 1 10z"/>
<glyph glyph-name="furtif" unicode="&#72;" d="M457 180c-1 0-1 1-2 2-1 2-2 4-3 6-10 13-47 58-113 85-19 7-36 19-48 35-11 15-20 35-11 52 10 18 26 27 40 32 7 3 13 8 16 15 2 7 2 15-1 21-16 34-55 84-140 84 0 0-93 2-90-92 0 0 1-47 27-80 14-17 19-40 14-61-7-33-27-82-78-134-23-23-26-59-8-85 11-15 26-34 48-53 15-14 40-6 43 15 8 50 23 134 36 200 2 9 15 9 17 0 10-38 27-106 46-200 1-8 8-15 16-17 8-3 17 0 23 6 20 21 47 49 70 67 15 11 32 18 50 20l1 0c40 3 65 46 47 82z m-242 183c-9-17-32-22-48-11-12 8-25 24-27 55-4 57 26 63 26 63 0 0 45 9 55-59 0 0 5-28-6-48z"/>
<glyph glyph-name="kunai" unicode="&#73;" d="M430 497c-44 2-81-33-82-78 0-8 1-16 3-24-3-1-5-3-7-5l-48-45c-15-14-43-22-62-18l-62 13c-20 4-42-7-50-26l-119-276c-8-19 1-28 20-21l279 107c18 7 32 29 29 49l-7 60c-3 20 7 48 22 62l46 44c2 1 3 3 4 4 9-4 19-6 30-6 44-2 81 33 83 78 1 44-34 81-79 82z m-2-121c-22 1-40 19-39 42 0 22 19 40 41 39 22 0 40-19 40-41-1-23-20-40-42-40z"/>
<glyph glyph-name="yinyang" unicode="&#74;" d="M298 149c0-21-16-36-37-36-20 0-36 16-36 36 0 21 17 37 37 37 20-1 36-16 36-37z m-48 363c-39-1-77-11-114-30-95-52-148-163-128-270 13-72 48-129 108-170 43-30 92-44 146-42 55 1 105 18 149 52 65 51 96 121 97 203 0 37-7 73-22 107-42 96-138 152-236 150z m-33-31c-57-9-92-81-73-141 15-45 57-77 105-78 80 0 120-64 117-119-15-177-302-106-325 62-15 70-1 123 22 171-8-33-8-86 8-122 5-11 18-6 15 4-13 120 43 211 131 223z m37-63c20-1 36-17 36-37 0-21-16-36-37-36-20 0-36 16-36 36 0 21 17 37 37 37z m190-128c28-41 37-112-9-177-23-24-24-3-15 11 7 9 42 79 4 169-14 21 4 18 20-3z"/>
<glyph glyph-name="lave" unicode="&#75;" d="M217 488c0-11-9-20-20-20-11 0-21 9-21 20 0 12 10 21 21 21 11 0 20-9 20-21z m-141-240c8 1 19 7 24 30 1 7 4 15 9 21 3 4 6 8 10 11 2 2 3 5 2 7-1 3-3 4-6 5-16 1-40-1-56-18-2-2-3-5-5-8-4-8-10-27 3-41 5-5 12-7 19-7z m305 98c-2 0-4-2-5-4-1-3 0-6 3-7 4-3 8-6 11-10 5-6 9-13 11-20 7-23 19-28 27-28 7 1 13 4 17 9 13 15 4 33-1 42-1 2-3 5-6 7-17 15-41 14-57 11z m-44 58c4 3 9 5 14 7 7 2 15 3 23 3 23-1 32 8 35 15 2 7 1 14-2 20-10 17-30 15-39 14-3-1-6-2-9-3-21-11-29-34-32-50 0-2 1-5 3-6 2-1 5-1 7 0z m-225-37c7 2 15 3 23 2 5-1 10-2 15-4 2-1 5 0 7 1 1 2 2 5 1 7-7 15-19 36-42 42-3 0-6 1-9 0-9 0-29-3-35-21-2-7-1-14 2-20 5-7 15-14 38-7z m85 42l4-45c0-8 5-16 12-20l25-12c10-6 22-4 30 3l19 17c8 7 13 18 13 29l0 102c0 15-12 28-26 29-15 1-29-10-31-24l-5-35c-1-7-7-12-14-13-13-2-27-11-27-31z m83-113c1-28 3-55 7-82 1-8 0-16-4-22l-19-33c-5-7-3-17 4-22l84-58c5-4 8-10 9-16l6-52c0-6 6-11 12-11l100 0c16 0 23 19 12 30-50 45-100 106-127 138-13 17-22 37-24 58-5 34-7 71-7 96 0 5-3 10-8 12-5 2-11 2-15-2l-22-20c-5-4-8-10-8-16z m-247-296l204 0c10 0 18 4 25 10l40 35c3 3 5 7 5 12 0 5-2 9-6 12l-74 60c-7 6-9 16-3 24l25 34c4 7 7 15 6 23l-8 77c-1 7-5 14-12 17l-43 24c-4 2-9 2-13 0-4-3-7-7-7-12l-3-52c-1-11-4-22-9-32-33-62-105-158-140-204-4-6-5-13-2-18 3-6 9-10 15-10z"/>
<glyph glyph-name="magnetisme" unicode="&#76;" d="M448 369l-127 127c-10 10-25 16-40 16-15 0-29-6-41-16l-17-18c-11-11-17-25-17-41 0-15 6-29 17-40l127-128c15-14 23-33 23-53 0-20-8-40-22-53-15-14-34-23-54-23-20 0-40 9-53 23l-129 127c-11 11-25 17-40 17-15 0-29-6-41-17l-17-18c-23-22-23-58 0-80l127-128c40-40 94-62 152-62 58 0 111 22 152 62 41 41 63 95 63 153 0 57-22 110-63 152z m-112 57l-44-45-43 43c-7 7-7 19 0 27l18 17c7 7 20 7 27 0z m-205-206l-45-45-42 42c-4 4-6 9-6 14 0 5 2 10 6 13l17 18c4 3 9 5 14 5 4 0 9-2 13-5z"/>
<glyph glyph-name="iwa" unicode="&#77;" d="M83 421c2 9 9 15 19 15l223 0c9 0 17-6 19-14l28-117 68 0c8 0 16-5 18-14 6-25 11-37 17-48 6-10 14-19 31-37 4-4 6-9 5-14l-7-99c-1-10-9-17-19-17l-247 0c-9 0-18 7-19 17l-1 10-186 0c-9 0-17 7-18 16l-14 103c0 5 1 10 4 14 20 27 36 49 48 76 13 27 23 60 31 109z m131-280l-4 40c-1 7 2 14 8 18 18 12 29 22 36 35 8 14 13 31 20 56 2 9 10 14 18 14l41 1-22 94-194 0c-8-43-18-75-30-103-14-28-30-52-49-77l11-78z m93 126c-6-20-12-37-20-52-10-16-22-29-38-41l6-60 213-1 5 73c-13 14-23 25-31 38-7 12-12 26-17 44z"/>
<glyph glyph-name="lantern2" unicode="&#78;" d="M340 437l-25 0 0 28c0 5-4 8-9 8l-42 0 0 31c0 4-3 8-8 8-5 0-8-4-8-8l0-31-43 0c-4 0-8-3-8-8l0-28-25 0c-29 0-52-23-52-52l0-171c0-29 23-52 52-52l25 0 0-29c0-5 4-8 8-8l43 0 0-20-11 0c-5 0-8-4-8-9l0-88c0-4 3-8 8-8l38 0c5 0 8 4 8 8l0 88c0 5-3 9-8 9l-11 0 0 20 42 0c5 0 9 3 9 8l0 29 25 0c29 0 52 23 52 52l0 171c0 29-23 52-52 52z m-74-349l0-71-21 0 0 71z m-52 369l84 0 0-20-84 0z m-77-243l0 171c0 20 16 36 35 36l19 0c-9-10-14-22-14-36l0-171c0-13 5-26 14-35l-19 0c-19 0-35 16-35 35z m161-73l-84 0 0 21 15 0c0 0 0 0 0 0l54 0c0 0 0 0 0 0l15 0 0-21z m77 73c0-19-16-35-35-35l-19 0c9 9 14 22 14 35l0 171c0 14-5 26-14 36l19 0c19 0 35-16 35-36z"/>
<glyph glyph-name="katana2" unicode="&#79;" d="M454 511l-295-295c-3-4-9-4-13 0l-6 6c-4 4-10 10-15 9-3-1-7-5-11-9-3-4-10-10-9-15 1-3 6-7 9-11l7-6c3-4 3-10 0-13l-97-97c-4-4-4-10 0-13l38-39c4-3 10-3 13 0l97 97c4 4 10 4 13 0l7-6c3-4 10-10 15-9 2 0 7 5 11 9 3 3 9 10 8 14 0 3-5 8-9 11l-6 7c-2 2-4 4-7 6l225 225c4 4 10 9 13 13 21 25 30 58 26 90-1 5-3 13-4 18l-1 5c-1 2-2 3-4 4-2 0-4 0-5-1z m-405-3l-1-5c-1-5-3-13-4-18-5-32 5-65 26-90 3-4 9-9 12-13l103-102c3-4 9-4 13 0l38 39c4 3 4 9 0 13l-178 178c-2 2-4 2-5 2-2-1-4-2-4-4z m265-267l-39-39c-3-3-3-9 0-13l26-25c3-4 3-10 0-13l-7-7c-3-3-10-10-9-14 1-3 6-8 9-11 4-4 11-10 15-9 3 0 8 5 11 9l7 6c3 4 9 4 13 0l97-97c3-3 9-3 12 0l39 39c4 3 4 9 0 13l-97 97c-3 3-3 9 0 13l7 6c3 4 10 10 9 15-1 3-6 7-9 11-4 4-10 10-15 9-3-1-8-5-11-9l-7-6c-3-4-9-4-12 0l-26 25c-4 4-9 4-13 0z m-187-97c10-10 16-16 15-21 0-3-2-4-2-4-7-3-7-3-7-3-6 3-6 3-6 3-10 10-17 16-16 21 1 3 5 7 9 7z m271 0c1-11-3-15-7-19-3-4-9-9-13-9-6 3-6 3-6 3-2 11 3 15 6 19 4 3 9 9 13 9z m-291-19c10-10 17-17 16-21-1-3-3-5-3-5-6-3-6-3-6-3-7 3-7 3-7 3-10 10-16 17-15 21 1 3 5 8 9 8l0 0z m310 0c2-11-3-16-7-19-3-4-9-9-12-10-7 3-7 3-7 3-2 11 3 16 7 19 3 4 9 10 13 10z m-329-19c10-10 16-17 15-22 0-3-2-4-2-4-7-3-7-3-7-3-6 3-6 3-6 3-10 10-16 16-15 21 0 3 5 7 9 7l0 0z m348 0c2-12-3-16-6-20-4-3-9-9-13-9-6 3-6 3-6 3-2 11 2 16 6 19 4 4 9 9 13 9z m-367-20c10-10 16-16 15-21-1-3-2-5-2-5-7-2-7-2-7-2-6 2-6 2-6 2-10 10-17 17-16 22 1 2 5 7 9 7z m387 0c2-11-3-16-7-19-3-4-9-9-13-9-6 2-6 2-6 2l0 0c-2 12 3 16 7 20 3 3 9 9 12 9z m-455-35c-2-9-1-20 4-29 3-4 8-10 13-12 9-6 19-7 29-4 4 1 5 7 2 10l-37 37c-4 4-9 3-11-2z m499 2l-37-37c-3-3-3-9 2-10 10-3 20-2 29 4 4 2 10 8 13 12 5 9 6 20 3 29-1 5-6 6-10 2z"/>
<glyph glyph-name="katana" unicode="&#80;" d="M486 72l-5 4c-3 2-7 2-9 0-19-12-34-30-42-51-1-3 0-7 3-9l2-2c3-2 5-1 7 2 9 20 24 38 43 49 3 2 3 5 1 7z m7 421l-12-21c-2-3-4-7-6-10-40-67-88-130-142-187-2-2-6-6-8-8-53-54-112-102-175-143-2-1-3-5-2-7 6-12 14-23 23-32 2-2 5-3 8-1 131 87 242 204 322 340 1 3 3 6 3 7 6 10 7 16 8 22 0 3 0 8 0 11-1 11-5 21-12 30-2 2-5 2-7-1z m-33-493c1 0 5 0 8 0 18 3 32 17 35 35 0 3 0 8 0 10-1 8-4 8-6 7-18-11-32-27-40-46-1-3 0-6 3-6z m-3 94c0 0 0 1 0 1-3 2-7 2-9 0-19-11-35-29-43-50-1-3 0-7 2-9 1 0 2-1 2-1 3-2 6-2 7 1 9 21 23 38 41 52 3 1 3 4 0 6z m-46 39c-22 19-43 38-64 57-2 2-6 2-8 0-16-15-33-30-50-45-2-2-2-5 0-7 23-21 46-42 70-62 2-2 5-1 7 1 10 21 25 38 44 50 3 2 3 4 1 6z m-313-37c-25-14-51-28-77-40-3-1-8-3-10-5-5-3-9-9-10-15-1-3-1-8-1-10 3-15 11-23 21-25 3-1 8-1 11 0 1 0 1 0 2 0 3 1 7 3 10 5l48 26c3 1 7 4 10 5 8 5 17 10 26 15 3 2 3 5 1 7 0 1-1 1-1 2-2 2-5 6-7 8-6 8-11 16-15 25-2 2-5 3-8 2z m43 260c-2-14-11-26-23-33-3-1-3-4-1-6 33-39 68-77 104-113 2-2 6-2 8-1 17 15 34 29 51 45 2 2 2 5 0 7-50 50-97 103-141 157-2 3-5 6-7 9l-5 6c-2 2-5 2-5-1-2-6-4-12-7-18-1-3 1-6 3-7 12-7 21-19 23-34 0-3 0-8 0-11z m-95 46c6-2 8-1 10 2 10 20 17 41 21 63 1 3 2 8 2 11l0 0c1 4 0 7-2 10l-5 6c-2 2-5 6-7 8-5 5-12 9-20 10-3 0-6 0-8 0-21-3-34-16-37-32 0-3 0-8 0-11 1-4 3-8 5-12 1-3 4-7 6-9l29-37c1-3 4-6 6-9z m146-337c1 0 2-1 3-2 2-1 3-5 1-7l-4-6c-1-2-5-3-7-1-32 23-56 56-66 94-1 2-2 7-3 10 0 3 2 5 4 5l7 2c3 0 6-1 6-4 1-2 2-6 3-9 0-1 1-3 1-4 1-3 4-4 6-2 5 3 10 7 16 10 2 2 2 5 0 7-12 10-23 17-33 18-3 1-8 1-11-1 0 0 0 0 0 0-3-1-6-5-7-8-6-17 2-53 27-87 2-2 5-6 7-8 16-20 34-33 49-36 3-1 8-1 10 0 1 0 1 1 2 1 3 1 6 5 7 8 3 8 2 19-1 32 0 3-3 4-6 2-3-2-7-5-11-7-2-2-2-5 0-7z m242 49c0 0-1 0-1 0-2 2-6 3-9 1-19-11-35-29-44-49-2-3-1-7 2-9 0-1 1-1 2-2 2-2 5-1 7 2 9 20 24 37 42 50 3 2 3 5 1 7z m-402 222c3 0 6 1 9 2 3 1 4 0 3-3-5-21-8-43-9-66 0-3 0-8 0-11 1-20 3-39 8-59 0-2 1-7 2-10l7-27c1-3 4-5 7-4l6 2c3 0 5 3 4 6l-7 27c0 3-2 8-2 11-4 18-7 36-7 54 0 3 0 8 0 11 1 25 5 50 12 74 1 3 4 4 6 2l0 0c3-2 7-5 10-6 3-2 7-3 11-3 3-1 8-1 11 0 10 2 18 10 20 20 1 3 1 8 0 11-2 11-10 19-20 21-3 0-8 0-11 0-3 0-4 1-3 4 11 22 19 45 23 69 1 3-1 6-4 7l-7 1c-3 0-6-2-6-5-6-30-17-59-33-85-1-3-5-3-7-2l-3 2c-2 2-6 4-9 6-4 1-7 2-11 3-3 0-8 0-11 0-10-2-18-10-20-21-1-3-1-8 0-11 2-10 10-18 20-20 3-1 8-1 11 0z m72 21c0-1-1-2-2-2-2-2-7-2-10-1-1 0-1 0-1 0-3 1-7 4-10 6-1 0-1 1-1 3 1 1 1 2 2 2 2 1 6 4 9 5 0 0 0 0 1 0 3 1 8 1 10-1 1 0 2-1 2-2 2-2 2-8 0-10z m-72 13c0 0 1 0 1 0 3-1 7-4 9-6 1 0 1-2 1-3 0-1-1-2-2-2-2-1-5-4-8-5 0 0-1 0-1 0-3-1-8-1-11 1 0 0-1 1-2 2-1 2-1 8 0 10 1 1 2 2 2 2 3 2 8 2 11 1z"/>
<glyph glyph-name="lantern" unicode="&#81;" d="M399 402c-22 13-49 22-79 27l0 34c0 5-4 9-9 9l-47 0 0 32c0 4-3 8-8 8-4 0-8-4-8-8l0-32-48 0c-4 0-8-4-8-9l0-34c-30-5-57-15-78-27-41-23-62-58-62-99 0-41 21-75 62-99 21-12 48-21 78-26l0-33c0-4 4-8 8-8l48 0 0-24-13 0c-4 0-8-4-8-8l0-97c0-4 4-8 8-8l42 0c5 0 8 4 8 8l0 97c0 4-3 8-8 8l-13 0 0 24 47 0c5 0 9 4 9 8l0 33c30 5 57 14 79 26 40 24 61 58 61 99 0 41-21 76-61 99z m-130-306l0-80-26 0 0 80z m51 104c-3-1-6-2-8-3 0 0 0 0-1 0-2-1-5-1-8-2-1-1-3-1-4-1 3 4 7 8 10 13 13 23 19 56 19 96 0 40-6 73-19 96-3 5-7 10-10 14 1-1 3-1 4-2 3 0 6-1 8-2 1 0 1 0 1 0 2-1 5-2 8-3 42-18 67-54 67-103 0-48-25-85-67-103z m-111-5c-2 0-3 1-5 1 0 0 0 0 0 0-1 1-2 1-4 1 0 0 0 0 0 1-3 0-5 1-8 3-42 17-67 54-67 102 0 49 25 85 67 103 3 1 5 2 8 3 0 0 0 0 0 0 2 0 3 1 4 1 0 0 0 0 0 0 2 1 3 1 5 1 1 1 3 1 4 2-3-4-6-9-9-14-13-23-20-56-20-96 0-40 7-73 20-96 3-5 6-9 9-13-1 0-3 0-4 1z m0 260l94 0 0-24c-15 2-30 3-47 3-16 0-32-1-47-3z m94-302l-94 0 0 22c15-2 31-3 47-3 17 0 32 1 47 3z"/>
<glyph glyph-name="naruto" unicode="&#82;" d="M239 434c4-11-1-23-12-27-21-8-41-25-65-57l-16 12 16-12c-27-36-50-55-86-71-11-5-23 0-27 10-5 11 0 23 10 28 29 12 47 27 70 58 26 34 51 58 83 71 11 4 23-1 27-12z m265 0c4-11-2-23-12-27-22-8-41-25-65-57l-16 12 16-12c-27-36-51-55-87-71-10-5-22 0-27 10-5 11 0 23 11 28 28 12 46 27 70 58l16-13-16 13c26 34 51 58 83 71 10 4 22-1 27-12z m-312-210c4-11-1-23-11-27-22-8-42-25-66-57l-16 12 16-12c-26-36-50-55-86-71-10-5-23 0-27 11-5 10 0 22 10 27 29 12 47 27 70 58 26 34 51 58 83 71 11 4 23-1 27-12z m261-2c5-11-1-23-11-27-22-9-41-25-65-57-27-36-51-55-87-71-10-5-22 0-27 10-5 11 0 23 10 28 29 12 47 27 70 58 26 34 52 58 84 71 10 4 22-2 26-12z"/>
<glyph glyph-name="metal" unicode="&#83;" d="M363 484l-213 0c-16 0-30-9-38-22l-106-185c-8-13-8-29 0-43l106-184c8-14 22-22 38-22l213 0c15 0 29 9 37 22l106 184c8 14 8 30 0 43l-106 185c-8 13-22 22-37 22z m-81-337c-82-18-153 53-135 135 9 41 42 74 84 84 81 17 152-54 134-136-9-41-42-74-83-83z"/>
<glyph glyph-name="orage" unicode="&#84;" d="M191 258l38 137c2 9-2 19-10 22-10 5-21 8-33 9-8 1-22 1-30 0-54-6-96-49-103-103-1-8-1-22 0-30 0-1 0-1 0-1 0-4-2-8-5-10-25-13-42-37-47-65-1-9-1-23 0-31 2-14 8-27 16-38 5-7 14-17 21-22 11-7 24-13 38-15 9-2 23-2 31-2l74 0c2 0 4-1 6-3 1-1 1-4 1-6l-1-3c0-1 0-1 1-2 0 0 1 0 2 1l0 1c3 5 6 11 8 16l48 94c3 7 3 15-1 21-5 7-12 10-19 10l-18-2c-5 0-10 2-14 6-4 5-5 10-3 16z m288 14c-13 11-28 18-45 20-38 83-79 120-108 77l-5-8-26-38c-3-5-3-11 0-16 3-5 9-8 15-7l1 1c10 2 21-3 27-12 5-10 4-21-2-30l-104-131c-4-6-9-12-14-18l-15-20c-1-1-1-3 0-5 2-1 4-1 5 1 20 17 46 26 72 24l125 0c9 0 23-1 31 1 38 6 69 37 75 75 2 8 2 22 0 31-2 11-6 22-12 32-4 7-13 18-20 23z"/>
<glyph glyph-name="konoha" unicode="&#85;" d="M490 473c-5 0-9-2-13-5l-46-45c-26 16-68 34-126 33-72-1-133-42-168-105-14-25-27-52-38-77-3-6-5-12-8-17-9-21-18-42-27-59-12-26-26-42-44-61-5-6-10-12-15-18-4-4-6-10-5-15 1-6 5-11 9-14 50-28 111-43 171-48 61-6 121-2 169 8 1 0 2 0 3 0 33 8 63 20 87 39 35 27 56 65 59 115 4 70-46 162-150 163 0 0-1 0-1 0-73 0-117-57-121-102 0 0 0 0 0-1-2-37 8-63 26-80 18-15 41-24 61-26 24-1 44 5 59 16 15 13 26 30 29 44 2 16 0 29-6 39-6 10-15 15-20 17l0 0c-10 4-21 0-25-9-5-10 0-21 9-25 2-1 3-2 3-2l1 0c0 0 0 0 0 0l0 0 0 0 0 0c7-14-3-26-14-34-30-17-52-9-71 8-8 7-16 20-15 50 3 26 32 67 84 67 77-1 116-69 113-123l0 0c-2-39-18-67-44-87-27-21-64-33-110-37-47 0-100 26-124 62 0 1 0 1-1 1-14 19-25 50-29 83-4 34 0 68 13 94 4 8 8 16 12 22 30 46 76 73 128 74 58 1 96-20 119-34 7-5 17-4 23 2l56 55c8 7 8 19 1 26-4 4-9 6-14 6z m-375-255c14-68 32-98 81-140-52 2-108 16-147 34 17 20 35 40 49 69 6 11 11 24 17 37z"/>
<glyph glyph-name="naruto-1" unicode="&#86;" d="M496 304c-6 6-11 13-14 21-2 9-2 18-1 27 3 19-1 38-10 54-13 14-30 24-49 26-9 2-17 5-25 10-6 6-12 13-16 20-9 17-23 31-40 39-19 4-38 1-54-8-9-3-18-6-27-7-9 1-18 4-26 7-17 9-36 12-54 8-18-8-32-22-41-39-4-7-9-14-16-20-7-5-16-8-25-10-18-2-36-12-48-26-10-16-13-35-10-54 1-9 0-18-1-27-4-7-9-15-15-21-14-13-22-31-24-51 2-19 11-37 24-51 6-6 11-13 15-21 1-9 2-18 1-27-3-18 0-37 10-54 12-14 30-23 48-26 9-2 18-5 25-9 7-6 12-13 16-21 9-17 23-31 41-38 18-4 37-2 54 7 8 4 17 6 26 7 9-1 18-3 27-7 12-6 25-9 38-10 6 0 11 1 16 3 17 7 31 21 40 38 4 8 10 15 16 21 8 4 16 7 25 9 19 3 36 12 49 26 9 17 13 36 10 54-1 9-1 18 1 27 3 8 8 15 14 21 14 14 22 32 24 51-2 19-10 37-24 51z m-192-159c-4-1-8-1-12-1-33-1-63 17-78 47-14 31-7 78 26 94 16 7 34 8 50 1 10-4 15-15 12-24-4-10-15-15-25-12-6 3-13 3-20 1-11-5-16-29-8-45 10-17 30-27 50-24 30 4 52 39 53 69 2 44-41 70-43 71-31 17-69 14-98-6-38-31-51-84-31-129 4-10-1-21-10-25-10-4-21 1-25 11-27 61-8 133 45 174 41 29 94 32 138 8 7-4 64-40 62-105-1-45-35-99-86-105z"/>
<glyph glyph-name="lancer" unicode="&#87;" d="M76 208c9-9 24-1 23 12-2 12-7 21-12 26-4 4-9 5-14 4-6-2-9-7-10-12-1-14 5-24 13-30z m348 73c7-1 13 5 14 13 0 7-6 14-13 14-8 0-14-6-14-13-1-8 5-14 13-14z m73-83c-6-6-14-13-23-17-4-1-9-1-12 1-4 2-6 6-6 10-1 13-4 33-13 52-4 8-16 5-16-4 2-32 0-81-18-105-52-68-165-68-253-1-12 10-24 20-34 31-5 6-13 0-11-6 1-1 1-2 1-2 14-32 31-61 53-87 16-19 37-44 58-65 7-6 17 1 15 10 0 2-1 4-1 7-4 16 13 29 28 21 4-2 8-4 12-7 17-12 71-38 125-36 11 0 16 15 8 23-4 2-7 5-10 9-5 5-8 13-7 20 0 8 4 15 10 20 10 9 22 17 34 23 0 0 60 29 75 96 1 8-9 13-15 7z m-111 141c7-8 19-1 16 9-2 9-6 17-10 26-6 14-10 29-12 44-4 26-15 44-26 55-6 6-17 2-17-7 0-7 0-13-2-19-1-6-6-11-11-12-6-1-12 1-16 5-46 54-95 69-128 72-13 1-20-14-11-24l0-1c8-8 2-22-9-23-101-8-141-50-158-80-3-5-3-13 1-18 4-6 10-9 17-8l0 0c9 0 18-7 18-16 2-16 6-31 11-46 4-9 17-6 17 3 0 28 9 55 26 77 51 68 161 63 253 1 16-11 29-23 41-38z m-42-8c1 2 0 4-1 6-2 1-4 2-6 1l-75-21c-5-2-10-2-15 0l-75 21c-2 1-4 0-5-1-2-2-2-4-2-6l22-75c1-5 1-10 0-15l-22-75c0-2 0-4 2-5 1-2 3-2 5-2l75 22c5 1 10 1 15 0l75-22c2 0 4 0 6 2 1 1 2 3 1 5l-21 75c-1 5-1 10 0 15z m-71-101c-10-10-27-10-37 0-10 10-10 27 0 37 10 10 27 10 37 0 11-10 11-27 0-37z"/>
<glyph glyph-name="marionnettiste" unicode="&#88;" d="M142 512c-9 0-18-5-23-12-8-13-3-31 12-38l3-2 0-7c0-4-1-7 2-10 6-5 13-1 13 8 0 2 0 3 0 3 16-5 27-9 41-15 2-1 2-1 1-1 0-1-2-1-4-2-11-5-23-9-34-13-4-2-9-3-13-5-2-1-5-2-7-3-4-1-7-3-10-6-10-11-10-26 0-37 2-2 9-6 10-6 1-18 1-23 1-43l-5-5c-9-8-15-18-23-32-8-16-10-25-10-39 1-9 2-12 4-17 4-7 12-11 24-10 9 0 18 8 28 22 3 5 11 19 11 21 0 0 1 1 1 1 2 0 25-12 27-14 1-1 2-4 3-11 3-21 5-48 7-84l0-21-2-4c-2-5-13-24-18-31-1-2-3-5-3-6-1 0-3-4-6-8l-4-7 0 23c0 20 0 46 0 78-1 12-1 13-2 14-3 3-8 3-11 0-1-2-1-2-1-70l0-69-3-6c-5-10-7-16-7-23 0-14 6-22 18-24 5-1 14-1 18 1 7 3 17 10 25 19 5 6 12 17 15 24 9 16 14 24 22 35 2 3 4 6 5 7 1 2 4 6 7 9 2 3 6 8 8 10 2 3 4 5 4 5 1-1 8-11 12-16 6-11 11-23 14-34 3-9 4-17 5-30 0-11 0-13 2-17 1-4 5-9 9-11 3-1 9-3 14-3 15 0 22 7 25 24 2 8 2 37 1 42-5 22-18 48-28 75 0 2-3 7-5 12l-4 9 0 24c0 13 0 23 0 23 0 0 1 0 2-1 3-4 25-22 29-25 1-1 4-3 7-6 4-2 7-5 8-5 12-6 22-11 38-7 7 3 10 9 11 19 0 6 0 6-1 9-1 2-4 6-5 8l-3 4-1 116c0 63 0 42 1 43 0 1 0 2 2 2 6 2 12 8 14 13 1 2 2 5 2 7 2 8-1 17-7 23-4 4-6 5-20 10-20 8-48 19-48 19-1 0 4 3 16 7 4 2 8 3 13 5 1 0 4 2 7 3l6 2 0-5c1-5 1-5 2-7 3-2 4-3 7-2 5 1 5 3 5 11 0 7 1 9 2 9 2 0 7 3 10 6 3 4 6 9 7 15 2 10-4 22-15 27-3 2-4 2-10 2-6 1-6 1-14-2-4-2-8-3-9-3 0-1-5-3-10-4-10-5-27-11-30-12-1 0-7-3-12-5-29-11-49-18-49-18-1 0-6 1-16 5-3 1-10 4-15 6-5 2-13 5-18 7-5 2-13 5-18 7-5 2-12 4-16 6-23 9-34 13-38 14-1 0-2 0-3 0z m123-102c1 0 7-2 13-5 6-2 14-5 17-6 3-1 11-5 19-8 8-3 20-7 26-9 6-3 14-6 19-8 5-2 12-5 16-6l7-3 0-34 0-109-4 5c-10 11-26 28-39 41-11 11-13 13-15 13-4 1-6 0-7-2-5-5-15-26-51-26-68 2-53 54-76 67-3 1-15 6-18 6-1 0-3 1-5 1-2 1-7 2-11 2l-7 0 0 8c0 54 0 28 0 28 0 0 7 3 15 6 8 3 21 8 29 11 8 3 22 9 31 12 10 4 23 9 29 11 6 3 12 5 12 5z m0-52c-1 0-2 0-3 0-12-2-20-5-28-13-13-13-17-33-11-49 3-6 5-10 9-14 5-5 9-8 14-10 2-1 4-2 6-3 0 0 0 0 1 0 5-1 10-2 13-2 1 0 3 0 4 0 8 1 16 4 22 9 19 14 24 39 13 59-8 14-24 23-40 23z"/>
<glyph glyph-name="parchemin" unicode="&#89;" d="M502 303l-27 27c0 0 0 1 0 1l-142 142c0 0 0 0 0 0 0 0 0 0 0 0l0 0-30 29c-6 6-15 10-25 10-13 0-27-6-38-17-20-20-23-48-7-64l17-17-152-152-17 17c-7 7-16 10-26 10-13 0-27-6-38-17-20-19-23-48-7-64l27-26c0-1 1-2 2-3l169-169c1-1 2-2 3-2 6-5 14-8 23-8 13 0 27 6 38 17 9 9 15 21 17 32 1 13-2 24-10 32l-3 3 152 152 3-3c1 0 1-1 1-1 6-6 15-9 25-9 13 0 27 6 38 17 9 9 15 20 17 32 1 12-2 24-10 31z m-80-37l-5 5c-4 4-6 10-5 18 1 8 5 16 12 22 7 8 17 12 26 12 4 0 9-1 14-5l5-5c-11-2-22-8-31-17-9-9-14-20-16-30z m-170 217c7 8 17 12 26 12 4 0 9-1 14-5l8-8c-11-2-22-8-31-16-3-4-6-7-9-11-3-6-6-13-7-20l-8 8c-9 9-6 27 7 40z m-58-435c-9 9-6 27 7 40 7 8 17 12 26 12 3 0 7 0 10-2l8-8c-10-2-21-8-29-16-9-9-15-20-17-31z m-165 212c7 8 17 12 26 12 4 0 10-1 14-5l8-8c-11-2-22-7-31-16-9-9-14-20-16-31l-8 8c-9 9-6 27 7 40z m243-209c-1-8-5-16-12-22-7-8-17-12-26-12-2 0-4 0-6 0 0 1-1 1-2 1 0 0 0 0 0 0 0 0 0 0-1 0 0 0 0 0 0 1 0 0 0 0-1 0 0 0 0 0 0 0 0 0 0 0-1 0 0 0 0 1 0 1 0 0 0 0-1 0 0 0 0 0 0 0 0 0 0 1-1 1 0 0 0 0 0 0 0 0 0 1-1 1-9 9-5 27 7 40 8 7 18 12 27 12 4 0 9-1 13-5 1-1 1-1 2-2 0 0 0 0 0 0 0-1 1-1 1-2 0 0 0 0 0 0 1-1 1-3 2-4 0-3 0-6 0-10z m-8 44l-11 12c-1 1-2 2-3 3l-140 139c0 0 0 0 0 0 0 0 0 1 0 1l152 152 154-155z m231 179c-1-8-5-16-12-22-8-8-17-12-26-12-2 0-4 0-6 0-1 0-1 1-1 1 0 0 0 0 0 0-1 0-1 0-1 0 0 0 0 0 0 0-1 0-1 0-1 0 0 0 0 0 0 1 0 0-1 0-1 0 0 0 0 0 0 0 0 0-1 0-1 0 0 0 0 0 0 1 0 0-1 0-1 0 0 0 0 0 0 0 0 0 0 1-1 1 0 0 0 0 0 0 0 0-1 0-1 1-9 9-5 27 7 40 8 7 18 12 27 12 3 0 9-1 13-5 1-1 1-1 2-2 0 0 0 0 0 0 0-1 0-1 1-2 0 0 0 0 0 0 0-1 1-2 1-4 1-3 1-6 1-10z"/>
<glyph glyph-name="enveloppe" unicode="&#90;" d="M136 282l121 0 0-121-121 0z m373 85l-118 118c-3 3-9 3-12 0l-25-26-21 21c-1 1-3 2-6 2-2 0-4-1-6-2l-32-32-17 17c-1 1-3 2-6 2-2 0-4-1-6-2l-30-30-228-228c-3-3-3-9 0-12l168-168c2-1 4-2 6-2 2 0 4 1 6 2l226 226 2 2 30 30c0 0 0 1 0 1l69 69c2 1 3 3 3 6 0 2-1 4-3 6z m-243 80l12-11-19-18c-4 4-8 8-11 11z m8-294c0-5-4-9-8-9l-138 0c-5 0-9 4-9 9l0 137c0 5 4 9 9 9l138 0c4 0 8-4 8-9z m92 157c-2 3-5 4-8 3-19-7-38 7-50 20-13 12-27 31-20 50 1 3 0 6-2 8 0 0-7 7-15 15l56 56 15-14 92-93-56-56z m38-37l-15 14 19 19 14-15z m30 30l-14 15 32 32c1 1 2 3 2 5 0 3-1 5-2 6l-87 87 20 19 106-106z"/>
<glyph glyph-name="ramen" unicode="&#48;" d="M295 190c0-23-19-41-41-41-19 0-35 15-35 34 0 16 13 29 29 29 14 0 25-11 25-24 0-4-3-8-8-8-4 0-7 4-7 8 0 5-4 9-10 9-7 0-14-6-14-14 0-10 9-19 20-19 14 0 26 12 26 26 0 4 3 8 7 8 4 0 8-4 8-8z m197 109l-263 0 0 88 170-3c7 0 13 6 13 13l0 13c0 7-6 13-13 13l-170-3 0 29 170-3c7 0 13 6 13 13l0 13c0 7-6 13-13 13l-174-3c-3 4-9 7-14 7l-18 0 0-8-15 0 0 8-25 0 0-8-15-1 0 9-25 0 0-9-15 0 0 9-17 0c-10 0-18-8-18-18l0-172-43 0c-12 0-21-10-20-21 9-102 78-175 172-202l-7-35c-2-9 5-18 14-18l154 0c9 0 16 9 14 18l-7 35c94 27 163 100 172 202 1 11-8 21-20 21z m-379 0l-15 0 0 91 15-1z m0 119l-15 0 0 34 15-1z m40-119l-15 0 0 90 15 0z m0 120l-15-1 0 33 15 0z m25 31l15 0 0-30-15-1z m0-151l0 89 15 0 0-89z m142-129c-6-3-8-10-6-16 4-10-3-20-13-19-7 0-13-4-14-10-3-10-15-14-22-8-5 5-13 5-18 0-8-6-19-2-22 8-1 6-7 10-14 10-10-1-17 9-13 19 2 6 0 13-6 16-8 5-8 18 0 23 6 4 8 11 6 17-4 9 3 19 13 18 7 0 13 4 14 11 3 9 15 13 22 7 5-4 13-4 18 0 7 6 19 2 22-7 1-7 7-11 14-11 10 1 17-9 13-18-2-6 0-13 6-17 8-5 8-18 0-23z"/>
<glyph glyph-name="kumo" unicode="&#49;" d="M271 382c-23 0-42-19-42-42 0-24 12-43 35-43 27 0 40-23 40-45 0-25-20-45-45-45l-101 0c-23 0-42-19-42-42 0-24 19-43 42-43l210 0c24 0 43 19 43 43 0 23-10 42-34 42-24 0-44 20-44 45 0 25 20 45 44 45l58 0c24 0 43 19 43 43 0 23-19 42-43 42z m-70-42c0 39 31 70 70 70l164 0c39 0 71-31 71-70 0-39-32-71-71-71l-58 0c-9 0-17-7-17-17 0-9 8-17 17-17 39 0 62-31 62-70 0-39-32-71-71-71l-210 0c-38 0-70 32-70 71 0 39 32 70 70 70l101 0c10 0 17 8 17 17 1 9-5 17-12 17-39 0-63 32-63 71z m-113 53c-18 0-36-5-48-13-17-12-14-31 0-40 12-8 30-13 48-13 18 0 36 5 48 13 19 13 14 31 0 40-12 8-30 13-48 13z m-56 13c15 10 36 15 56 15 20 0 41-5 56-15 14-9 27-25 27-46 0-21-13-37-27-46-15-10-36-15-56-15-20 0-41 5-56 15-14 9-27 25-27 46 0 21 13 37 27 46z m56 16c-21 0-41-5-57-15-15-9-28-25-28-47 0-22 13-38 28-47 16-10 36-15 57-15 21 0 41 5 57 15 15 9 28 25 28 47 0 22-13 38-28 47-16 10-36 15-57 15z m183-10c-40 0-72-33-72-72 0-20 6-38 18-51 11-13 27-21 47-21l0 0c3 0 6-2 8-5 2-3 3-7 3-11l0 0c0-8-7-15-16-15l-101 0c-39 0-72-33-72-72 0-40 33-72 72-72l210 0c40 0 72 32 72 72 0 19-5 37-16 51-11 13-27 21-47 21-8 0-15 7-15 15 0 9 7 16 15 16l58 0c40 0 72 32 72 72 0 39-32 72-72 72z m-136-33c7-5 11-11 12-18 0-6-3-13-12-20-29-15-66-17-94 0-7 5-11 11-11 18-1 7 3 14 11 20 29 15 66 17 94 0z m136 2l164 0c23 0 42-19 42-41 0-23-19-41-42-41l-58 0c-25 0-46-21-46-47 0-25 21-46 46-46 12 0 20-5 25-12 5-7 8-18 8-29 0-23-19-41-42-41l-210 0c-22 0-41 18-41 41 0 22 19 41 41 41l101 0c26 0 47 21 47 46 0 11-4 23-11 32-6 9-17 15-31 15l0 0c-11 0-20 4-25 11-6 8-9 18-9 30 0 22 18 41 41 41z m-183 45c-21 0-42-6-58-16-16-10-30-27-30-50 0-23 14-40 30-50 16-10 37-16 58-16 21 0 42 6 58 16 16 10 30 27 30 50 0 23-14 40-30 50-16 10-37 16-58 16z m183-11c-41 0-75-34-75-75 0-21 6-40 18-53 12-14 29-23 50-23l0 0c2 0 4-1 5-3 2-2 3-5 3-8l0-1 0 0c0-7-6-12-13-12l-101 0c-41 0-75-34-75-75 0-42 34-76 75-76l210 0c42 0 76 34 76 76 0 20-6 39-18 53-11 13-28 22-49 22-6 0-12 5-12 12 0 7 6 12 12 12l58 0c42 0 76 34 76 76 0 41-34 75-76 75z m-182-27c16 0 31-4 44-12 7-4 10-10 11-15 0-5-2-11-11-17-28-15-64-16-90 0-6 4-10 10-10 15 0 6 2 12 10 17 14 7 30 11 46 12z m182-10l164 0c21 0 38-17 38-38 0-21-17-38-38-38l-58 0c-27 0-49-23-49-50 0-27 22-49 49-49 11 0 17-4 22-11 5-6 7-16 7-27 0-21-17-38-38-38l-210 0c-21 0-37 17-37 38 0 21 16 38 37 38l101 0c28 0 50 22 50 49 0 12-4 24-11 34-7 9-19 16-34 16l0 0c-10 0-18 4-23 10-5 7-8 17-8 28 0 21 17 38 38 38z"/>
<glyph glyph-name="paysdufer" unicode="&#50;" d="M256 451c-5 0-10-2-14-5l-91-67c-13-9-13-29 0-38l91-67c8-6 20-6 28 0l91 67c13 9 13 29 0 38l-91 67c-4 3-9 5-14 5z m0-42c5 0 10-1 14-4l35-26c13-9 13-29 0-38l-35-26c-8-6-20-6-28 0l-35 26c-13 9-13 29 0 38l35 26c4 3 9 4 14 4z m141-61c-5 0-10-2-15-5l-91-67c-13-9-13-29 0-38l91-67c9-7 20-7 29 0l91 66c13 10 13 30 0 39l-91 67c-5 3-9 5-14 5z m-282-1c-5 0-10-1-14-4l-91-67c-13-9-13-29 0-39l91-66c8-6 20-6 28 0l92 66c13 10 13 30 0 39l-92 67c-4 3-9 4-14 4z m282-40c5 0 9-2 14-5l35-26c13-9 13-29 0-39l-35-25c-9-6-20-6-29 0l-35 26c-13 9-13 29 0 38l35 26c5 3 10 5 15 5z m-282-1c5 0 10-1 14-4l35-26c13-9 13-29 0-39l-35-25c-8-6-20-6-28 0l-35 25c-13 10-13 30 0 39l35 26c4 3 9 4 14 4z m141-61c-5 0-10-2-14-5l-92-67c-13-9-13-29 0-38l92-67c8-6 20-6 28 0l91 66c13 10 13 30 0 39l-91 67c-4 3-9 5-14 5z m0-42c5 0 10-1 14-4l35-26c13-9 13-29 0-39l-35-25c-8-6-20-6-28 0l-35 26c-13 9-13 29 0 38l35 26c4 3 9 4 14 4z"/>
<glyph glyph-name="sable" unicode="&#51;" d="M512 185c-1 21-19 32-35 44-7 4-18 12-20 16-7 22-10 24-37 40-7 4-17 10-30 18-34 22-61 51-82 75-13 14-24 26-35 34-16 12-30 14-41 6-17-12-56-68-81-98-35-41-98-94-127-104-33-12-36-44 19-54 100-17 78-47 175-55 61-5 223 24 278 51 5 2 9 5 12 9 3 5 5 11 4 18z m-202 86c-23 34-37 86-51 119 1-1 2-2 4-3 8-6 19-18 31-32 23-24 50-55 87-78 13-8 23-14 31-18 11-7 18-11 21-14 1-2 1-3 4-11 4-13 16-21 30-31 5-4 15-10 20-15 2-2 1-4 0-5-6-1-16-2-31 0-37 3-98 18-146 88z m-132-116c-11 0-19 9-19 20 0 11 8 20 19 20 11 0 20-9 20-20 0-11-9-20-20-20z m39 53c-9 0-15 7-15 15 0 9 6 16 15 16 9 0 15-7 15-16 0-8-6-15-15-15z m34-59c-10 0-19 8-19 18 0 10 9 18 19 18 10 0 18-8 18-18 0-10-8-18-18-18z m-116-42c0-8-7-14-15-14-7 0-14 6-14 14 0 8 7 14 14 14 8 0 15-6 15-14z m-49 20c0-9-7-16-16-16-9 0-17 7-17 16 0 9 8 17 17 17 9 0 16-8 16-17z m-54-23c0-8-6-15-15-15-8 0-14 7-14 15 0 8 6 15 14 15 9 0 15-7 15-15z m458 14c0-8-7-15-16-15-9 0-16 7-16 15 0 9 7 16 16 16 9 0 16-7 16-16z"/>
<glyph glyph-name="poussiere" unicode="&#52;" d="M421 3c-11 4-14 15-6 24 3 4 6 5 11 5 17 0 21-24 5-29-3-2-6-2-6-2 0 0-2 1-4 2z m-353 26c-5 6-6 11-2 17 5 6 6 7 14 7 9 0 16-9 14-18-3-12-18-16-26-6z m226 18c-21 4-42 14-58 26-9 7-11 12-6 19 3 5 10 4 24-6 16-10 28-15 47-19 12-2 15-4 17-8 2-4 2-5-1-9-4-6-10-7-23-3z m53 1c-13 10-1 32 15 26 11-5 13-16 5-25-6-6-13-6-20-1z m-229 20c-35 9-64 35-76 69-3 9-4 14-4 34 0 21 1 25 4 35 8 21 18 29 26 20 3-4 3-7-4-23-5-14-7-34-4-49 7-32 34-59 66-66 37-8 76 11 93 46 4 7 7 16 8 20 1 8 6 16 11 16 1 0 4-2 6-3 5-3 5-12 1-25-10-37-40-66-77-74-14-4-38-3-50 0z m276 2c-6 7-4 12 9 22 15 12 28 27 36 44 10 21 12 31 12 59 0 22-1 26-5 37-10 28-28 52-53 69-13 9-15 12-11 19 4 7 11 6 25-3 29-19 50-48 61-82 6-19 7-56 2-76-6-27-18-48-37-68-20-22-32-28-39-21z m-35 104c-6 5-9 13-5 20 5 10 17 12 24 4 7-8 5-19-4-24-7-3-9-3-15 0z m-259 33c-15 13-29 31-38 50-12 26-13 37-4 41 7 4 12-1 16-13 7-23 18-41 36-59 12-11 14-17 8-22-5-4-10-4-18 3z m66 32c-9 7-8 21 2 26 16 8 30-11 18-24-6-6-14-7-20-2z m325 35c-6 1-11 8-11 15 0 14 17 20 26 10 11-11 0-28-15-25z m-171 6c-11 3-14 16-6 25 5 5 14 6 20 1 6-5 7-11 4-19-3-7-10-9-18-7z m121 23c-2 2-3 5-2 10 3 24 3 41-1 55-3 13-3 15-1 19 6 9 16 6 21-8 3-8 4-14 4-36 0-28-2-38-8-41-5-2-10-2-13 1z m-393 23c-7 6-7 14 0 22 6 6 13 6 20 0 6-5 7-11 3-18-5-10-14-12-23-4z m171 0c-5 3-6 6-6 11 0 5 1 8 6 11 8 7 18 5 23-5 3-5 3-6 1-11-5-11-15-14-24-6z m-83 29c-12 7-10 25 4 28 7 2 13-1 16-8 3-6 3-8 2-12-3-5-10-10-15-10-1 0-4 1-7 2z m184 10c-11 3-14 17-6 25 5 6 14 6 20 1 6-5 7-11 4-18-3-7-10-10-18-8z m-256 11c-1 2-2 5-2 7 0 6 15 28 29 43 18 18 36 29 60 37 14 4 19 5 39 6 26 1 50-3 54-9 4-5 3-11-2-14-4-3-5-3-19 0-19 4-45 3-62-2-31-10-59-31-74-58-3-4-6-9-8-11-3-4-11-4-15 1z m163 21c-6 8 0 18 21 38 16 15 35 26 55 31 31 8 79 2 87-11 3-4 3-5 1-9-3-6-9-7-22-3-26 9-57 6-82-6-13-6-32-23-43-38-6-8-11-8-17-2z m183 15c-8 8-6 18 4 24 16 8 30-15 16-26-6-5-14-4-20 2z m-404 3c-11 9-6 26 8 28 5 1 7 0 11-5 7-7 7-15 0-22-6-5-13-5-19-1z m89 71c-10 9-3 26 11 26 13 0 20-17 11-26-6-6-15-6-22 0z"/>
</font>
</defs>
</svg>
